<?xml version="1.0" encoding="utf-8"?>
<!-- Generator: Adobe Illustrator 23.0.6, SVG Export Plug-In . SVG Version: 6.00 Build 0)  -->
<svg version="1.2" baseProfile="tiny"
	 id="svg548" xmlns:cc="http://creativecommons.org/ns#" xmlns:dc="http://purl.org/dc/elements/1.1/" xmlns:rdf="http://www.w3.org/1999/02/22-rdf-syntax-ns#"
	 xmlns="http://www.w3.org/2000/svg" xmlns:xlink="http://www.w3.org/1999/xlink" x="0px" y="0px" width="640px" height="480px"
	 viewBox="0 0 640 480" xml:space="preserve">
<rect fill="#FFFFFF" width="640" height="452.2"/>
<rect y="238.7" fill="#00AB39" width="640" height="241.3"/>
<g id="dragon" transform="translate(-59.512 8.2826)">
	<path d="M512.4,70.3c-1.7-0.2-3.3,0.1-5.2,0.9c-3.6,1.7-8.1,5.4-15.8,11.2c-17.3,13.2-36.9,14.9-60.3,15.4
		c-48.5,1.1-71,13-81.6,28.2c-10.6,15.2-9.3,33.5-10.5,47.1c-0.9,9.3-2.6,17.2-9.3,25.9c1.8-4.5,2.4-7.8,2-10.2
		c-0.5-2.6-2-4.3-3.7-5.7c-1.7-1.4-3.6-2.5-5.1-4.1c-1.2-1.2-1.9-2.9-2.3-4.9c1.9-1.2,4.2-1.3,6.1-0.2c2.3,1.4,3.9,4.5,2.7,9.3
		c0,0.2,0.1,0.4,0.3,0.5c0,0.1,0,0.2,0,0.2c0.2,0.2,0.5,0.2,0.7,0l0.1-0.1c0,0,0,0,0,0c4.7-5,6.7-9.1,7.1-12.6
		c0.3-3.5-1-6.4-2.9-8.9s-4.2-4.6-5.9-6.7c-1.6-2-2.6-3.9-2.2-6.1c0.8-0.8,1.5-1.3,2.1-1.6c1.4-0.6,2.5-0.2,3.5,0.8
		c1,1,1.8,2.5,2.3,4.2c0.5,1.7,0.7,3.5,0.5,4.8c0,0,0,0,0,0.1c-0.1,0.2,0,0.5,0.3,0.6c0.2,0.1,0.5,0.1,0.7-0.1c0,0,0-0.1,0.1-0.1
		c0,0,0,0,0-0.1c3.1-4.7,4.4-8.8,4.5-12.3c0.1-3.6-1.1-6.6-2.8-9.1c-1.7-2.5-3.9-4.6-5.9-6.4c-1.9-1.7-3.6-3.2-4.4-4.5
		c0-0.4,0-0.8,0-1.2c1.5-1,3.4-1.6,5.2-1.3c2,0.4,3.7,1.8,4.6,5c0,0,0.1,0,0.1,0c0,0.3,0.2,0.5,0.5,0.5c0.3,0,0.5-0.2,0.5-0.5v0
		c0.2-6.5-1-11.7-3.4-15.6c-2.2-3.6-5.5-6-9.4-7.3c0.2-0.3,0.3-0.5,0.5-0.8c1.3-1.8,3.2-3.8,4.9-6.2c3.5-4.7,6.9-10.7,6.2-18.2
		c0-0.1-0.1-0.1-0.1-0.2c0-0.1,0-0.2-0.1-0.2c-0.1-0.1-0.3-0.1-0.4-0.1c-0.1,0-0.1,0.1-0.2,0.2c-0.1,0-0.2,0.1-0.2,0.1
		c-3.3,4.3-9.3,5.6-15.6,6.4c0.7-1.3,1.6-3.1,2.4-5.2c0.9-2.4,1.6-4.8,1.3-6.6v0c0,0,0-0.1,0-0.2c0-0.1-0.1-0.3-0.2-0.3
		c-0.1-0.1-0.3-0.1-0.4-0.1c-0.1,0-0.1,0.1-0.1,0.1c-0.1,0-0.2,0.1-0.2,0.1c-3.8,4.2-11,6.7-17.4,8.4c-3.2,0.9-6.1,1.6-8.3,2.3
		c-1.1,0.3-2,0.7-2.7,1.1c-0.4,0.2-0.8,0.5-1.1,0.9c-4.4-1-8.5-1.6-12.2-1.8c-6.7-0.3-12.2,0.5-15.9,2c-1.9,0.7-3.3,1.7-4.2,2.8
		c-0.9,1.1-1.3,2.4-1,3.7c0.3,1.2,1.3,2.4,2.7,3.6c-9.6-4-17.8-5.5-24.5-5.6c-2.8,0-5.3,0.2-7.6,0.6c-4.6,0.8-8.1,2.3-10.8,3.7
		c-2.1,1.2-3.3,2.3-4.2,3.2c-0.1,0.1-0.2,0.1-0.3,0.2c0,0,0,0-0.1,0c0,0,0,0.1,0,0.1c0,0.1-0.1,0.1-0.2,0.2c0,0-0.1,0-0.1,0v0
		c0,0-0.1,0.1-0.1,0.1c-0.1,0.2-0.1,0.5,0,0.7c0.2,0.2,0.4,0.2,0.7,0.1c1.2-0.7,2.6-1.3,4-1.9c0.1,0,0.1,0,0.2,0
		c1.2,0,2.4,0.3,3.6,0.7c1.3,0.5,2.5,1.1,3.3,1.7c0.9,0.6,1.5,1.1,1.6,1.2c0,0,0,0,0.1,0.1c0.6,0.4,1.5,0.8,2.4,1.2
		c-1.9,3.8-2.5,8.7-2.5,15.9c-0.3,0.1-0.6,0.1-1,0.2c-2,0.3-4.5,0.5-7.3,0.3c-4-0.2-8.4-1.2-12.5-3.4c0.7,0.1,1.3,0.3,2,0.4
		c3,0.2,5.6-0.5,7.6-1.5c0.3-0.1,0.7-0.1,0.9-0.2c0.2-0.1,0.3-0.3,0.3-0.5c0-0.2-0.1-0.2-0.2-0.3c0,0,0-0.1-0.1-0.2
		c-2.9-1.1-18.3-8.2-31.4-24.7c0,0,0,0,0,0c0,0,0,0,0,0c-0.1-0.2-0.3-0.2-0.5-0.2c-0.3,0.1-0.4,0.3-0.4,0.6c0,0.1,0,0.1,0,0.2
		c0.6,7.9,3,27,19,42.5c0.2,0.2,0.4,0.2,0.6,0.1s0.3-0.3,0.3-0.6c-0.4-2-0.6-3.4-1-5.5c0,0-0.1,0-0.1-0.1c0-2.7-0.2-4.5-0.5-6
		c4.8,4.4,9.8,6.3,14.5,7c6,0.8,11.4-0.5,15-1c0.2,0,0.4-0.1,0.6-0.1c0.1,3.4-1.2,7.7-3.4,11.3c-1.2,2-2.6,3.8-4.1,5
		c-1.5,1.2-3.1,1.9-4.5,1.8h0c-0.2,0-0.4,0.3-0.4,0.5c-0.1,0.1-0.2,0.1-0.2,0.3c0,0.3,0.2,0.5,0.5,0.5c6.5,0,11.9,0.2,17.8-0.2h0
		c0.7-0.1,1.1,0,1.1,0c0,0.1,0,0.1-0.1,0.2c-0.4,0.7-1.6,1.9-3.1,3.3c-0.2,0.1-0.2,0.4-0.1,0.6c0.1,0.2,0.3,0.4,0.5,0.3
		c0,0,0.1,0,0.1,0c0.1,0.1,0.3,0.1,0.5,0.1c0.1,0,0.1-0.1,0.2-0.1c0.2-0.1,0.4-0.1,0.6-0.2c3.8-0.4,8.6-1.2,12.2-3.8
		c-0.1,0.4-0.2,0.9-0.3,1.2c-0.1,0.3-0.4,0.7-0.8,1.1c-0.1,0.1-0.2,0.2-0.3,0.2c-0.6,0.5-1.1,0.9-1.8,1.4c0,0-0.1,0-0.1,0.1
		c-0.2,0.1-0.3,0.4-0.2,0.6c0.1,0.2,0.2,0.4,0.4,0.4c0,0,0.1,0,0.1,0h0.1c0,0,0.1,0,0.1,0c4-0.4,11-3.5,16.1-8.9
		c2.6,0.4,4.3,1.6,5.5,2.9c0.6,0.7,1.1,1.3,1.6,1.8c0.2,0.2,0.4,0.3,0.7,0.4c0,0.2-0.2,0.5-0.2,0.7c0.1,0.5,0.4,0.9,0.9,1.1
		c-1.9,3.5-2.5,5.9-2.2,7.5c0.2,0.9,0.6,1.5,1,1.9c-2.5,1.8-4.6,3.8-5.6,5.6c-0.6,1-0.8,1.9-0.6,2.8c0.1,0.2,0.3,0.4,0.4,0.6
		c-0.2,0-0.4,0-0.6,0h0c-2.5,1.2-4.9,3.6-6.2,6c-0.7,1.2-1,2.3-0.9,3.4c0,0.5,0.2,0.9,0.5,1.2c-3.1,1.6-6.1,5.2-7.7,8.5
		c-0.8,1.7-1.3,3.2-1.2,4.4c0.1,0.6,0.3,1.2,0.8,1.5c-0.1,0.1-0.2,0.2-0.3,0.3c-0.1,0.1-0.1,0.1-0.2,0.1c-3.2,1.6-5.3,5.5-6.2,8.9
		c-0.5,1.7-0.6,3.3-0.4,4.5c0.1,0.4,0.4,0.8,0.6,1.1c-0.2,0.1-0.4,0.2-0.5,0.3c-1,0.8-1.6,1.8-1.9,2.2l0,0c-1.9,2.4-2.7,6.2-2.5,9.5
		c0.1,1.6,0.4,3.1,1,4.2c0.2,0.4,0.5,0.6,0.9,0.9c0,0-0.2,0.1-0.2,0.2l0,0c-1.9,2.4-2.7,6.2-2.5,9.5c0.1,1.6,0.4,3.1,1,4.2
		c0.3,0.5,0.7,1,1.2,1.2c0.2,0.1,0.6,0.1,0.9,0.1c-0.1,0.1-0.3,0.3-0.3,0.4c0,0,0,0,0,0.1c-0.3,0.3-0.5,0.7-0.7,1.2
		c-0.1,0.2-0.1,0.6-0.2,0.9c-1.1,2.3-2.1,1.1-2.7,0.2c-4.9-10.3-9.7-16.3-14.5-39.7c-0.8-4.1-10-10.5-12.5-27
		c-0.5-3.7,5.1-11.8-2.6-14.2c0,0,0,0-0.1,0c-5.3-10.1-16.2-6.2-17.9-2.9c-0.2,0.2-0.2,0.4,0,0.6c0.1,0.2,0.3,0.3,0.6,0.2
		c1.4-0.4,5.6,1,5.6,3.7c-2.3,5.5,0.6,10.1-1,9.6c-0.2-8.6-9.6-8.5-9.9-8.4c0,0,0,0,0,0l-4.2-0.5c-14,0.1-10,10.3-9.2,12.3
		c0.1,0.2,0.4,0.3,0.8,0.2c0.3,0,0.5-0.2,0.6-0.4c-0.6-3.8,2.4-4,5.6-2.5c2,7.8,6.3,8,6.9,8v0h0.1c5.8,1.2,7.6,5,7.7,7.4
		c-1.8-0.7-4.1-1.1-7.2-0.5c-2.1-2.1-6.2-2.9-7.5-3.2c-0.7-0.1-5,0.4-6.8,2.9l-0.7-0.1c-8.7,2.8-5.1,12.6-2.1,13.7
		c0.1,0.2,0.3,0.2,0.5,0.2c0.2-0.1,0.3-0.2,0.3-0.4c-1.3-3,0.5-4.7,2.8-3.7c3.3,3.7,7.4,5.1,15.7,0.4c0.1,0.1,2.9,1.3,5.9,2.4
		c-0.1,3.5,3.6,9.6,6.3,14.2c-0.8,3.6-2.3,7.1-3.1,8.4c0,0-0.1,0.1-0.1,0.1c-3.4,2.6-6.3,8.8-4.9,14.3c-1.1,2.7-4.9,4.2-4.9-1.1
		c-0.2-0.1-0.4-0.2-0.6-0.1c-0.2,0.1-0.3,0.3-0.2,0.6c-1.2,3.5,4.5,14,13.5,8.5l1.8-2.1c3,0,6.1-3.9,7.2-7.2
		c4.5,27.3,15,54.9,19.4,63.9c-3.3,10.1-12.7,9.7-15.9,6.4c0,0-0.1,0-0.1-0.1c-0.2-0.2-0.5-0.1-0.7,0.1c-0.2,0.2-0.2,0.5,0.1,0.7
		c5.8,5.8,9,7.7,14.7,7.7c12.5,0,16.9-7.8,17.9-11.1c10.5-2.3,18.7-9.2,21.7-9.7c0.5,0.4,1.1,1.2,1.5,1.5c2.5,2,4.6,3.1,6.4,3.3
		c0.9,0.1,1.7,0,2.4-0.4c0.7,1.5,1.8,2.7,3.1,3.6c-0.5,3.7-1,11.3-3.7,21c-2.8,10-7.9,21.9-18,33.1c-4,1.7-7.2-0.9-9.2-2.6
		c-1.7-1.4-6.2-6.2-7-8.7c-0.9-2.9-2-5-3.6-6.5c-1.5-1.5-4.1-2-6.1-2.2c0,0,0.8,0.1-0.1,0c-0.7,0.1-1.2,0-1.7,0.1
		c-6.1-4.8-12.1,3.3-11.4,8.4c0,0.2,0.2,0.4,0.4,0.5c0.2,0.1,0.5,0,0.6-0.2c0.8-1.9,3.3-1.4,4.5,0.3c-0.2,1.8-0.1,3.9,1.9,6.3
		c-1.9,0.1-4.4,0.7-7,3.7c-10.5,1.3-8.6,13.2-5.5,15.1c0.1,0.2,0.3,0.3,0.5,0.3c0.2,0,0.4-0.2,0.4-0.4c-3.4-4.4,1.4-6.4,3.8-4.3
		c0.6,1.9,3.4,3.8,5.7,4.9c-0.1,0.6-0.9,2.9-0.6,3.6c-11.3,6.2-0.8,17,1.8,16.2c0.2-0.1,0.4-0.1,0.6-0.2c0.2-0.1,0.3-0.4,0.2-0.6
		c-1.6-2.6-1.7-5.6,1.1-4.8c1.5,0.9,4.2,1.3,5.7,1.3c3.6,0.1,5.5-2.3,10-6.6c2.7-2.6,4.7-1.3,6.3-0.5c0.2,0.7,0.5,1.6,1.4,2
		c1.3,0.5,4.1,0.8,5.8,0.8c9.2-0.3,14.3-2.3,18.5-3.8c4.2-1.5,8-2.2,11.5-2.3c3.3-0.1,5.4,0.6,9,1.8c1.8,0.6,4.7,2,6.1,2
		c2.3-0.1,3.3-1.2,3.9-2.1c3.4-0.6,4.3,0.9,2.3,4.8c-0.1,0.2,0,0.5,0.2,0.6c0.2,0.1,0.4,0.1,0.6,0c3.6-1.5,14.2-11.7-0.2-17.5
		c-2.2-1.9-5-3.6-7.2-3.6c-2.2,0-4.4,0.9-6.7,1.4c-2.3,0.5-4.5,1-5.3,1c-2.9,0.1-3.1-1.8-3.4-5c-0.3-3.3,6.6-14.7,9.6-18.7
		c6-8,14.1-17.1,19.9-23c17.2-0.7,10.3,9.5,7.4,11.4c-0.2,0.1-0.3,0.4-0.2,0.7c0.1,0.2,0.4,0.4,0.6,0.3c0.1,0,0.1-0.1,0.2-0.1
		c6.2-1.6,12.1-5.9,14.1-9.9c0,0,4.5-7.8,0.7-14.5c-0.2-0.4-0.4-0.9-0.6-1.3c2.2-1,4.8-4.7,4.9-5.2c2.9,0.8,13.9,0.2,14.9-6
		c5.1,0.5,14.3-2.9,14.6-8.5c0.6,0.6,1.9,0.6,3.3,0.3c0.6,4.7,7.6,9.1,9.3,8.1c0.7,7.8,10.5,11.4,13.3,10.1
		c-0.5,1.9,6.7,5.4,9.6,5.3c-5.5,15-15.4,32-29,38.7c-3.6-0.4-8.9-2.8-11.2-4.4c-1.8-1.2-4.2-2.8-5.6-5.1s-1.4-2.3-2.9-3.8
		c-1.5-1.5-4.6-2.7-5.6-2.6c-0.7,0.1-1.9,0.6-3,1.3c-13.4-2.4-12.1,7.2-11,10.7c0,0.2,0.2,0.4,0.4,0.5c0.2,0.1,0.5,0,0.6-0.2
		c0-5,2.9-5,4.4-2.7c0,0.1-0.1,0.1,0,0.2c0.8,1.7,0.5,2.7,0.2,3.4c-1.5,0.1-3,0.5-4.7,1.8c-11.8-1.3-10.7,11.7-7,13.3
		c0.1,0.2,0.3,0.3,0.5,0.3c0.2,0,0.4-0.2,0.4-0.4c-2.1-3.1,3.2-7.8,4.5-2.2v0c-0.1,0.2-0.2,0.4-0.1,0.6c0.3,1.8,2.4,3.6,4.3,4.5
		c-0.3,0.6-1.1,1.1-1.2,2c-12.4,4.4-5.5,15-1.8,16.6c0.2,0.1,0.4,0.1,0.6,0c0.2-0.1,0.3-0.4,0.2-0.6c-1.1-1.6-0.7-5.3,4.5-4.6
		c0.4,1.5,2.7,2.2,4.5,2.2c3.6,0,10-4.8,13.5-6.7c3.2-1.8,8.5-1.1,9.8-1c0.7,0.6,1.7,1.2,4.1,1.1c12.5-0.1,14.6-6.9,27.2-6.7
		c5.7,0.1,19.1,6.8,23.3,0.6c1.9-0.7,3,1,0.7,3.3c-0.2,0.2,0,0.5,0.2,0.6c0.2,0.1,0.4-0.1,0.6,0c3.7,0.5,14.9-11.7,0.1-15.7
		c-0.1-0.1-0.1-0.2-0.2-0.4c-0.4-0.3-2.2-2.3-6.6-2.3c-4.6,0-7.7,2.1-9.3,2.5c-3.3,0.9-2.1-1.8-1.8-2.6c3.7-9,21.5-25.8,29.6-32.6
		c0.8-0.3,1.8-0.8,2.9-1.6c8.1-2.9,10.3,5,2.3,7.9c-0.3,0.4-0.4,0.9-0.1,1.3c0.2,0.4,0.7,0.6,1.2,0.5c18.8-5,15.9-15.3,16-15.4
		c0.7-10.7-12-15.1-14-16.1c-3.4-3.8-4.2-6.1-4-8.9c0.1-1.3,1.2-3.6,3-2.6c3,2.4,6.7,3.8,7.7,1.9c-2.2,2.5,12.8,11.4,14.3,7.7
		c1.4,6.4,12.2,6,14.3,4.3c3.1,6,14.1,4.4,14.1,3.4c-0.4,2.2,9.5,5.5,14.1,2.1l0.2,0.5c3.6,4.4,5.8,10.4,8.3,20.8
		c2.5,10.4,2,18.6-1.3,27c-0.2,0.3-1.1,0.3-2.1,0.3c-2.7-1.1-4.2-1.9-6-3.3c-1.7-1.4-3.8-3.3-5.3-5.5c-1.4-2.5-2.4-4.5-3.9-6
		c-1.5-1.5-4.2-2.2-6.2-2.4h-0.1c-0.9,0.1-1.6,0.4-2.3,0.8c-10-3.1-14.9,7.5-13.7,11c0,0.2,0.2,0.4,0.4,0.5c0.2,0.1,0.5,0,0.6-0.2
		c1-2.6,5.7-3.9,7.3-1.5c0.2,1,0.2,1.8-0.1,2.3c-2.1,0.2-4.6,0.9-6.9,3.8c-11.7,0.8-7.7,12.3-5.3,15.3c0.1,0.2,0.3,0.3,0.5,0.3
		c0.2,0,0.4-0.2,0.5-0.4c-0.3-3.3,3.1-7.3,5.5-4.3c1.1,1.7,3.4,2.9,5.1,3.3c-13.4,6.2-3.8,15.1-0.2,16.6c0.2,0.1,0.4,0.1,0.6,0
		c0.2-0.1,0.3-0.4,0.2-0.6c-1.6-2.6-0.7-6.6,2.4-5.5c-0.1,2.2,4.4,3.6,6.4,3.7c3.6,0.1,7.3-2.9,10.8-4.8c3.3-1.8,10.9-1.8,12.4-1.9
		c5.1,4.9,15,3.7,20.5,1.9c5.9-1.9,10.3-5.1,14.9-5.2c6.3,0,11.1,7.6,16.5,1.2c3.6-1.7,4.7,2.7,2.9,5.4c-0.1,0.2,0,0.4,0.2,0.6
		c0.2,0.1,0.4,0.1,0.6,0c3.6-1.5,13-10.2,0.2-16.4c0.6-1.7-5-6.5-9.7-6.5c-5.8,0-14.5,8.8-17.9-8.7c-0.8-4.2-3.2-34.7-3.4-37.7
		c1.1-0.7,2.6-1.6,3.7-1.6c1.3-0.1,2.6-0.2,3.9,1.9s2.3,5.1-1,9.2c0,0.1,0.1,0.1,0,0.2c0,0.1-0.1,0.2-0.1,0.3c0,0.1,0.1,0.1,0.1,0.1
		c0,0.1,0,0.1,0,0.2c0,0,0.1,0,0.1,0c0,0,0,0.1,0.1,0.1c0.2,0.1,0.4,0,0.5-0.2c8-7.9,9.9-16.4,7.8-22.2c-2.1-5.8-8-10.1-12.7-10.2
		c-5.7-0.1-12-3.5-17.4-8.5c-5.4-5-8.7-10.7-10.9-16c-0.4-1-0.9-1.9-1.4-2.9c34.8-12,44.8-39.8,44.7-56.8c0-11.8-4.8-21.8-11.8-29.2
		c-0.1-2.8,0.6-6.4,1.7-9.6c0.6-1.8,1.4-3.4,2-4.6c0.3-0.5,0.5-0.8,0.7-1.1c0.2,0.7,0.3,1.3,0.7,2.4c0.6,1.5,1.4,3.2,2.3,4.9
		c1.8,3.5,3.9,7,5.7,8.5c0.1,0.1,0.4,0.1,0.5,0.1c0.2-0.1,0.3-0.2,0.3-0.4c1.4-17.1,7.3-42.3,26.4-65.4c0,0,0,0,0,0c0,0,0,0,0,0
		c0.1,0,0.1-0.1,0.2-0.1c0.2-0.1,0.3-0.4,0.3-0.6c-0.1-0.2-0.3-0.4-0.6-0.4c0,0-0.1,0-0.1,0c0,0,0,0,0,0c-4.4,2.1-8.3,4.1-11.8,6.1
		c-31.1,16.6-36.6,27.8-53.8,41c-0.2,0.1-0.3,0.4-0.2,0.6c0.1,0.2,0.3,0.4,0.6,0.3c8.5-0.4,15.8-2.3,22.5-5.7
		c-1.7,2.8-3.6,6.1-5.5,9.1c-1.1,1.8-2.2,3.3-3.1,4.3c-0.4,0.5-0.8,0.9-1.1,1.1c-0.1,0.1-0.2,0.1-0.2,0.1c-4.6-2.2-9.4-3.4-14-3.4
		c-17.1,0-29,11.4-29.1,25.1c-0.1,14.8,11.3,25.7,22.7,25.2c3.9-0.2,9.2-1.2,13.8-4.3c3.4-2.3,6.4-5.7,8.1-10.5
		c0,0.4,0.1,0.8,0.1,1.2c0,7.9-3,13.3-8,17c-4.9,3.7-11.9,5.6-19.7,5.7c-7.6,0.2-15.5-4-26.6-8.5c-11.1-4.5-25.4-9.1-45.8-9.5
		c-6.1-0.1-11.9,0.5-16.8,3c-0.3,0.2-0.6,0.4-0.9,0.6c2.6-3.1,5.7-5.9,9.5-8c8.9-4.9,20.2-6.2,30.3-2c1.1,0.5,2.4,1.2,3.3,1.6
		c0.8,0.3,1.2,0.3,1.9,0.5c0.2,1.2,0.2,2.2,0,2.7c-0.1,0.2-0.3,0.3-0.4,0.4c-0.1,0-0.2,0.1-0.4,0.1c-0.2,0-0.4,0.1-0.8,0
		c-0.2,0-0.4,0-0.5,0.2c-0.1,0.1-0.2,0.4-0.1,0.5c0,0.2,0.1,0.5,0.3,0.6c0.1,0.1,0.3,0,0.4,0.1c0.8,0.8,1.7,1.2,2.5,1
		c1.1-0.2,1.9-1.1,2.6-2.1c0.7-1,1.2-2.1,1.5-3.2c0-0.1,0-0.2,0-0.3c0.8-1,1.5-2.3,1.2-4c-0.3-1.7-1.7-3.4-4.3-4.9
		c-0.1,0,0-0.1-0.1-0.2c-0.1-0.1-0.6-0.6-1.1-1.6c-0.4-0.9-0.9-2.2-1.2-3.7c-0.7-3-0.9-6.8,0-10.6c1.7-7.6,7.3-15.2,22.6-16.7
		c0.1,0,0.1-0.1,0.2-0.1c3,0.6,5.6,1,7.6,1c0.3,0,0.6-0.1,0.9-0.1c0.1,0.2,0.3,0.3,0.4,0.5c0.2,0.4,0.4,0.8,0.3,1.4
		c-0.1,0.4-0.4,1-0.9,1.6c0,0,0,0-0.1,0c-0.2,0-0.3,0.2-0.4,0.3c-0.1,0.2,0,0.4,0.1,0.5v0v0h0v0c0.1,0.2,0.2,0.3,0.4,0.4
		c0.2,0,0.4-0.1,0.6-0.1c0.9,0.3,1.8,0.3,2.6-0.3c1.1-0.7,2-2,2.5-3.4c0.5-1.4,0.7-2.9,0.3-4.2c-0.3-0.9-1.1-1.5-2-1.9
		c-12.1-12.6-11.6-28-6.8-40.9c2.4-6.5,5.9-12.3,9.3-16.7c3.5-4.4,7.3-7.5,9.2-8.2c0.1,0-0.1,0.1,0,0c0.8,0,1.5,0.1,2.2-0.1
		c1.1-0.3,2-0.8,2.9-1.5c0,0,0,0.1,0.1,0.2c0.3,0.1,0.5,0,0.7-0.3l0,0c0.1-0.1,0.3-0.1,0.5-0.2c0.4-0.1,0.9-0.2,1.2-0.2
		c0.2,0,0.3,0.1,0.4,0.1c0.1,0,0.1,0.1,0.1,0.2c0,0.3-0.1,0.9-0.7,2c0,0,0,0,0,0v0v0c-0.1,0.1-0.1,0.3,0,0.4c0,0,0,0,0,0v0
		c0,0,0,0,0,0c0,0,0,0,0,0.1c0,0,0,0,0,0c0,0,0,0,0,0c0,0,0.1,0.1,0.1,0.1c0,0,0,0,0.1,0c0,0,0,0,0.1,0c0,0,0,0,0.1,0c0,0,0,0,0.1,0
		c0.1,0,0.1,0,0.2,0c0,0,0.1,0,0.1-0.1c0,0,0,0,0,0c1-0.2,1.9-0.8,2.7-1.6c0.9-1,1.7-2.2,2-3.5c0.4-1.3,0.3-2.7-0.6-3.7
		c-0.8-0.8-2.2-1.1-4.1-1.1c-0.3-0.7-0.9-1.4-1.7-1.8c-0.8-0.3-1.8-0.4-2.9-0.4l-0.7-0.2C515.7,71.3,514.1,70.6,512.4,70.3
		L512.4,70.3z M246.8,125.1c3.6,0,7.2,0.6,10.5,2.1c-0.7,0.6-1.6,1-2.7,1.3c-2.1,0.5-4.7,0.3-7.1-0.1c-2.5-0.5-4.8-1.3-6.4-2.1
		c-0.5-0.2-0.7-0.5-1-0.7C242.2,125.3,244.5,125.1,246.8,125.1L246.8,125.1z M525.1,178.5c1.3,0,2.7,0.3,4.2,0.8
		c1.1,0.4,2.2,1.1,3.2,1.7c-0.1,0.2-0.3,0.4-0.3,0.6c-1.9,6.8-5.4,8.8-8.3,8.7c-2.9-0.1-5.3-2.2-5.3-5.1c0-3.6,1.2-5.3,3.1-6.1
		C522.6,178.7,523.8,178.5,525.1,178.5L525.1,178.5z M325.5,196.5c0.8-0.1,1.4,0,1.9,0.4c0.5,0.4,1,1.2,1.1,2.4
		c0,0.1,0.1,0.1,0.1,0.1c0,0.2,0,0.4,0.2,0.5c0.1,0,0.1,0,0.2,0c-0.9,1.2-1.8,2.3-3,3.5c-1.7-0.7-3.3-1.8-4.6-3.8
		C322.6,198,324.1,196.7,325.5,196.5L325.5,196.5z"/>
	<path fill="#D21034" d="M512.6,72.2c-6.5,6.5-12.9,11.1-22,16.6c-16,9.8-34.7,12.3-58,13.5c-47.2,2.5-68.1,11.7-77.8,25
		c-9.7,13.3-8.1,30.3-10.5,48.2c-0.8,5.6-2.5,12.3-5.5,17.9c-2.5,4.8-6.1,8.7-10.8,10.9c13.1-11.9,13.2-23.5,14.3-30.3
		c2-12.2-0.2-29.6,9.2-44.4c9.5-14.8,30.7-27.2,80-29.1c20.3-0.8,32.7-2.7,41.3-5.3c8.6-2.6,13.4-5.7,18.4-8.7
		c5.1-3.1,9.3-7.9,13.4-11c2-1.6,4.1-2.8,6.1-3.2C511.3,72.1,512,72.1,512.6,72.2z M518.4,74.9c0.9,0,1.7,0,2,0.2
		c0.5,0.2,0.7,0.4,0.8,0.8c0.2,0.6-0.1,2-1,3.2c-0.9,1.2-2.3,2.3-3.8,2.8c-1.5,0.4-4.1-0.7-4.5-1.1c-0.2-0.2-0.4-0.1-0.7-0.2
		c-0.3-0.3-0.5-0.6-0.8-0.9c-0.1-0.1-0.3-0.2-0.5-0.2c-0.1,0-0.2,0.1-0.3,0.1c-23.3,21.3-43.2,25.4-75.9,27.6
		c-11.2,0.8-28.6,2.9-43.7,6.7c-7.5,1.9-14.5,4.2-19.8,7c-5.3,2.8-9,6-9.8,10c0,0.2,0,0.3,0.1,0.5c0.1,0.1,0.3,0.2,0.5,0.2
		c0.1,0,0.1,0,0.2,0c0.2,0.3,0.6,0.5,1,0.5c2.8-0.2,10.8-0.3,21.6,0.1c10.8,0.4,24.5,1.2,38.9,2.6c27.8,2.7,58.2,7.5,76.3,15.2
		c0.4,0.4,0.7,0.9,1.1,1.3c0,0,0,0,0,0c-0.5,0.3-1.6,0.4-3.2,0.3c-3.3-0.3-8.4-1.5-14.6-3.1c-12.5-3.2-29.3-7.9-44.8-9.5
		c-26.3-2.8-42.1-6.4-78.2-6.5c0,0-0.1,0-0.1,0c0,0-0.1,0-0.1,0c-0.2,0.1-0.2,0.2-0.3,0.3c-0.1,0.1-0.3,0.3-0.5,0.4
		c-0.3,0.4-0.7,0.8-1.1,1.5c-0.8,1.3-1.4,3.1-1.1,5.2c0,0.2,0.1,0.4,0.3,0.4c0.1,0,0.2,0,0.3,0.1c0.1,0.1,0.1,0.3,0.3,0.4
		c3.1,0.5,10.2,2.7,19.2,6c9.1,3.2,20.2,7.5,31.8,12.3c22.5,9.3,46.6,20.5,60.1,29.3c0.9,0.7,2.3,1.8,3,2.7c0.2,0.2,0.3,0.5,0.4,0.6
		c0,0.2,0,0.3,0,0.4c-0.1,0.1-0.6,0.4-1.3,0.5c-5.4-1.2-13.8-5.7-23.6-11.4c-10.7-6.2-22.9-13.4-34.3-18.2
		c-20.1-8.3-44.4-19.1-55.8-21.6c0,0-0.1,0-0.1,0c-0.2,0-0.2,0.2-0.3,0.3c-0.1,0-0.1,0-0.2,0c-0.1,0-0.1,0.1-0.2,0.1
		c-0.8,0.5-1.4,1.1-1.7,1.9c-0.3,0.7-0.2,1.5,0.2,2.3c0.7,1.6,2.3,3.3,4.8,5.8c4.9,5,13.2,12.9,23.7,26.5
		c18.3,23.6,26.8,35,30.4,40.7c1.8,2.8,2.4,4.3,2.4,4.8c0,0.3,0,0.3-0.1,0.4c-0.1,0.1-0.3,0.2-0.5,0.3c-1.5-0.1-2.3-0.3-3.2-1.1
		c-0.9-0.8-1.8-2.3-3.2-4.7c-2.8-4.8-7.5-13.3-18.4-27.6c-6.6-8.7-14.7-18-21.5-25.8c-6.7-7.7-12.1-13.8-13.8-16
		c0-0.1-0.1-0.2-0.1-0.4c-0.1-0.1-0.1-0.2-0.3-0.3c-0.3-0.1-0.7-0.1-1,0.1c-0.2,0.2-0.4,0.4-0.6,0.7c-0.3,0.6-0.6,1.4-0.8,2.3
		c-0.5,2-1,4.7-1.4,7.5c-0.4,2.8-0.6,5.8-0.8,8.2c-0.2,2.3-0.3,4-0.2,4.9v0v0v0.1c0,0.1,0.1,0.1,0.1,0.2c0.5,4.1,2.3,7.5,4.6,12.3
		c2.4,5,5.3,11.4,7.9,21.6c2.2,8.6,4.4,17.6,5.5,24.4c0.5,3.4,0.8,6.3,0.6,8.3c-0.1,1-0.3,1.8-0.5,2.3s-0.5,0.7-1,0.8h0
		c-0.6,0.1-0.9,0.1-1.1-0.2c-0.2-0.2-0.5-0.8-0.6-1.8c-0.3-2-0.4-5.4-1-10.3c-1.1-9.9-3.9-26.2-13.4-51c0-0.1,0-0.1-0.1-0.2
		c0-0.1-0.1,0-0.1-0.1c-0.1-0.1-0.1-0.2-0.2-0.2c-0.1,0-0.1,0-0.2,0c0,0-0.1-0.1-0.1-0.1c0,0,0,0.1-0.1,0.1c-0.1,0-0.2,0-0.2,0
		c-0.1,0.1-0.2,0.2-0.3,0.3c-0.2,0.2-0.4,0.5-0.5,0.9c-0.4,0.7-0.8,1.8-1.3,3.2c-1,2.7-2.2,6.7-3.3,11.2c-1.5,6.1-2.9,13.3-3.6,20.6
		c-0.1-1.1-0.1-1.8-0.1-2.9c-0.1-2.6-0.1-5.2,0.1-7.3c0.1-1,0.3-2,0.5-2.8c0.1-0.4,0.2-0.6,0.3-0.9c0.2-0.4,0.3-0.9,0.5-1.2
		c0,0,0,0,0-0.1c0,0,0-0.1,0-0.1c0.1-0.2,0.1-0.4,0-0.6c0,0-0.1,0-0.1,0c-0.1-0.1-0.3-0.2-0.4-0.2c-0.1,0-0.2,0.1-0.3,0.1
		c-4.2,4-6.9,6.9-9,11.4c-1,2.2-1.9,4.8-2.6,8c0.1-2.2,0.2-4.2,0.3-5.8c0.1-1.6,0.3-2.8,0.5-3.3c0.1-0.2,0.1-0.4-0.1-0.6
		c-0.1-0.2-0.4-0.2-0.6-0.1c-0.1,0-0.1,0.1-0.2,0.2c0,0-0.1,0-0.1,0c0,0-0.1,0-0.1,0c-2.6,1.2-6.5,3.9-9.8,7.4
		c-1.5,1.6-2.9,3.4-4,5.2c0.8-3.4,1.6-4.7,2.3-6.1c0.2-0.3,0.4-0.5,0.7-0.9c0.1-0.2,0.1-0.4,0-0.5c-0.1-0.1-0.2-0.1-0.3-0.2
		c0,0,0,0,0,0c-0.1,0-0.1-0.1-0.2-0.1c-0.1,0-0.1,0-0.1,0c-0.1,0-0.1-0.1-0.2-0.1c-0.1,0-0.1,0.1-0.1,0.1
		c-14.6,1.3-23.5,6.8-28.7,13c-3.4,4.1-5.2,8.5-6,12.1c0.6-9.4,6.3-18.2,14.4-21.5c4.6-1.8,10.9-2.7,16.5-3.7
		c5.4-1,10.3-2.1,12.6-4.8c6.6-2.3,11.5-8.6,14.8-15.2c3.4-6.7,5.3-13.8,6-17.5c2.9-16,0-32.8,8.9-46c4.4-6.6,11.7-12.4,24.3-16.7
		c12.5-4.3,30.3-7.3,55.4-8.1c20.3-0.7,32.7-3.3,41.1-6.5c8.5-3.2,13.2-6.9,18.1-9.8c2.8-1.6,7.6-5.8,12.7-9.2
		c2.5-1.7,5.1-3.3,7.5-4.3C516.5,75.3,517.5,75,518.4,74.9L518.4,74.9z M322.2,77.4c-0.8,1.9-1.8,3.8-3,5.5c-0.9,1.2-1.8,2.3-2.4,3
		c-0.3,0.4-0.6,0.6-0.8,0.8c0,0,0,0.1-0.1,0.1c0,0,0,0,0,0c0,0-0.1,0-0.1,0c0,0,0,0,0,0c-0.1,0-0.1,0.1-0.1,0.2
		c-3.6,0.5-7.1,1-10,2.2c-0.4,0.2-0.7,0.5-1,0.7c-2.2-0.7-4.1-1.2-6.1-1.7c0,0,0,0,0,0c0.1-0.2,0.3-0.5,0.9-0.9
		c0.6-0.3,1.4-0.6,2.4-0.9c2-0.6,4.8-1.2,7.7-2C314.2,83,319.1,81,322.2,77.4L322.2,77.4z M524.4,77.5c0.5,0.1,0.9,0.2,1.2,0.4
		c0.5,0.4,0.7,0.9,0.6,1.7c-0.1,0.6-0.5,1.4-1,2.1c0.1-0.5,0.2-1.1,0-1.5c-0.4-0.9-1.4-1.3-2.4-1.5c0.2-0.4,0.4-0.8,0.5-1.2
		C523.6,77.5,524.1,77.4,524.4,77.5L524.4,77.5z M335.4,82.2c-1.8,9.5-6.9,15.4-11.9,19.2c-2.7,2-5.3,3.5-7.2,4.6
		c-1,0.5-1.8,1-2.4,1.4c-0.3,0.2-0.5,0.4-0.7,0.7c-0.2,0.2-0.4,0.5-0.4,0.8c0,0.3,0.2,0.5,0.5,0.5c0.8,0,3,0,5.1-0.1
		c0.8,0,1.1,0,1.8,0c2.4,5.1,3.4,12.3,3.2,20.6c-0.2,8.9-1.6,18.8-3.6,28.4c-2,9.6-4.3,20.3-4.3,29.5c0,4.6,0.6,8.9,2.2,12.4
		c1.3,2.9,3.3,5.3,6,7.2c-0.5,0.8-1.4,1.5-2.8,2c-1.7,0.6-3.8,1.1-6.2,1.5c-4.8,0.8-10.3,1.2-14.4,2.5c-2.7,0.8-8.8,3.9-13.4,9.4
		c-3.9,4.6-6.5,11.1-5.3,19.2c-0.1,0.1-0.1,0.3-0.1,0.5c0.1,0.2,0.2,0.5,0.3,0.7c0.2,1.2,0.3,2.4,0.7,3.7v0c0.1,0.3,0.4,0.4,0.7,0.4
		c0.3-0.1,0.4-0.4,0.4-0.6c0,0,0-0.1,0-0.1c0-0.1,0-0.1,0-0.2c-0.1-0.4-0.1-0.8-0.2-1.2c1,0.5,2.3,0.8,3.8,0.8
		c-1.9,4.4-3.3,9.5-4.2,14.8c-1-1.5-2.4-2.9-4.4-4.2c0.1-0.6,0.3-1.2,0.3-1.8c0-3.1-2-6.6-6.6-10.8c0.3-0.5,0.6-1,0.8-1.6
		c0.9-2.7,0.3-6.2-2.4-10.8c1.7-2.8,1.7-6.9-0.7-13.2c0,0-0.1,0-0.1-0.1c0.2-0.2,0.5-0.4,0.7-0.6c2-2.5,2.6-6.3,0.9-12.1
		c0,0,0,0,0,0c0.4-0.3,0.8-0.7,1.2-1.1c1.9-2.3,2.7-5.9,1.9-11.6c0.7-0.4,1.4-0.8,2-1.4c1.8-2,2.6-5.4,2.1-10.9
		c1.3-0.4,2.5-1.1,3.4-2.1c1.8-1.9,2.6-4.9,2-9.3c0.9-0.4,1.8-0.9,2.4-1.7c1.6-1.8,2.4-4.8,2.1-9.2c0.6-0.3,1.2-0.5,1.6-0.9
		c1.1-1.1,1.3-2.8,1.3-5.3c0-2.1-0.3-5.1-0.5-8.6c0.8-1.2,1.4-2.6,1.6-4.3c0.4-2.7,0-6-1.1-10.2c1.3-3.3,2.1-7,1.9-11.5
		c1,0.3,2.1,0.5,3.4,0.3c1.6-0.3,3.5-1.2,5.8-2.9c0.1,0,0.1-0.1,0.2-0.1c0,0,0.1,0,0.1-0.1c0.2-0.2,0.3-0.5,0.1-0.7
		c-0.1-0.2-0.4-0.3-0.7-0.2c0,0,0,0.1-0.1,0.1c-0.6,0.3-1.1,0.7-1.6,0.9c-0.5,0.3-0.8,0.3-1,0.2c-2.3-0.9-2.9,0.1-9.5-5.4
		c-0.1-0.1-0.2-0.1-0.4-0.1c-0.2,0-0.3,0.1-0.4,0.2c-0.1,0.1-0.1,0.3,0,0.5c0,0.1,0.1,0.2,0.1,0.2c0,0,0,0,0,0
		c0.6,1.4,1.8,2.6,3,3.7c0.5,0.4,0.8,0.5,1.2,0.8c-1.5-0.4-2.7-0.9-3.7-1.3c-0.2-0.1-0.4-0.1-0.6,0.1c-0.1,0.2-0.2,0.4-0.1,0.6
		c2.9,6.7,0.8,14.8-4.2,20.1c-4.9,5.3-12.5,7.8-21,3.7c-0.1-0.2-0.3-0.3-0.6-0.3c-0.1,0-0.2,0.1-0.3,0.2c0,0-0.1,0-0.1,0
		c-1.1,2-2.1,3.7-4.2,5.7c-1.3,1.2-3.2,2.5-5.6,3.9c1-1,1.8-1.9,2.2-2.9c1-1.9,1-3.8,0.9-6.2c0-0.2-0.2-0.4-0.4-0.5
		c-0.2-0.1-0.5,0.1-0.6,0.3c-1.5,2.8-6.1,6.9-13.7,9.7c3.2-2.6,5.2-5.5,5.4-8.3c0-0.2-0.1-0.4-0.3-0.5c-0.2-0.1-0.4-0.1-0.6,0.1
		c-4.2,3.7-11.5,4.9-18.6,5.3c1.6-0.7,3.1-1.8,4.5-3.3c2.7-2.9,4.9-7.4,6.2-13.3c4.9,2.9,9.5,3.8,13.3,3.6c4.4-0.3,7.8-2,10.3-3.4
		c-0.1,1.1-0.1,2-0.1,3.4c0,0.3,0.2,0.5,0.4,0.5c0.2,0.1,0.5-0.1,0.6-0.3c2.3-5.5,3.5-9,3.2-11.9c-0.3-2.9-2.2-5.1-5.4-8
		c-0.1-0.1-0.3-0.2-0.4-0.1c-0.2,0-0.4,0.2-0.4,0.5c-0.1,0.7-0.1,1.4-0.2,2.1c-6.5-0.4-13.4-6.6-27.5,4.1c-0.3-6.2,0-10.2,1.7-13.6
		c0.7,0.1,1.3,0.1,2,0c1.3-0.2,2.6-1,3.5-2.4c0.8-1.3,1.4-3.3,1.6-5.9c8.4,0.4,18.1,2,28.5,5c0,0,0.1,0,0.1,0c0.2,0,0.5-0.1,0.6-0.3
		c0-0.1,0-0.1,0-0.2c0,0,0.1,0,0.1,0c0.1-0.2,0-0.5-0.3-0.6c0,0,0,0-0.1,0c0,0,0,0-0.1,0c-1.7-0.7-3-1.4-4.2-2.2
		c-0.7-0.7-1.4-1.4-1.6-2.1c-0.5-1.7,0.2-3.4,2.6-4.9c4.7-2.9,15.9-4,34,2.1c-0.7,0.9-1.3,1.9-1.7,3.1c-0.1,0.2,0,0.5,0.2,0.6
		c0.2,0.1,0.5,0.1,0.7-0.1c5.2-5.1,12.4-5.9,19.3-7C325.4,88.7,331.4,87.2,335.4,82.2L335.4,82.2z M330.2,90.4
		c-0.1,0-0.2,0.1-0.3,0.1c-4.5,3.6-8.5,4.7-12.9,5.5c-3.7,0.6-5.3,1.9-6.3,2.6c-0.2,0.2-0.4,0.3-0.6,0.3c-0.1,0-0.2,0-0.4,0
		c-0.3-0.1-0.8-0.5-1.7-1.4c-0.2-0.2-0.4-0.2-0.6-0.1c-0.2,0.1-0.3,0.3-0.3,0.5c0,0.1,0.1,0.2,0.1,0.3c0,0,0,0,0,0
		c0.2,0.9,0.7,2,1.4,3.3c0.4,0.7,0.8,1.3,1.2,1.8c0.4,0.5,0.7,0.9,1.1,1.2c0.1,0.1,0.3,0.1,0.4,0.1c0.1,0,0.3-0.2,0.3-0.3
		c1.4-3,2.6-4.8,3.7-5.8c1-1,1.8-1.1,2.4-1c0.6,0.1,1.2,0.6,1.8,1c0.3,0.2,0.5,0.5,0.8,0.6c0.3,0.2,0.6,0.3,1,0.3
		c0.1,0,0.3-0.1,0.4-0.2c1.6-2.3,4.8-4.8,8.7-7.8c0.2-0.1,0.3-0.4,0.2-0.6C330.7,90.5,330.4,90.4,330.2,90.4L330.2,90.4z
		 M187.4,91.9c6.2,8.7,14.3,16.9,26,23.1c-4.8,0.5-8.4-0.5-11.4-2.5c-3.9-2.5-6.8-6.6-9.6-11.1c0,0,0,0,0-0.1
		c-0.1-0.2-0.3-0.3-0.6-0.2c-0.2,0-0.3,0.1-0.4,0.3c-0.1,0.2-0.1,0.3,0,0.5c0,0,0,0,0,0c3.9,8.3,7,12.1,9,14.8
		c1.8,2.5,2.5,4.2,2.1,7.9c-4.7-3.5-8.4-9.6-10.8-16C189.1,102.2,187.9,96,187.4,91.9L187.4,91.9z M501.5,92.5
		c-3.1,4.3-6.1,9.4-8.2,15.2c-4.4,11.9-5.3,26.3,3.1,38.8c-18.8-7.1-47.2-11.4-73.3-13.9c-14.5-1.4-28.2-2.2-39.1-2.6
		c-9.7-0.4-15.9-0.3-19.6-0.1c1.7-2.9,5.7-5.7,11.4-8.1c6.3-2.6,14.4-4.8,22.6-6.6c16.3-3.5,33-5.2,36.5-5.3
		c25.9-0.9,44.1-6.1,56.6-11.9C495.4,96.2,498.6,94.3,501.5,92.5L501.5,92.5z M269.6,94.4c-0.9-0.1-1.9,0-3.1,0.3
		c-0.3,0.1-0.4,0.3-0.4,0.6c0.1,0.8,0.4,1.4,1,1.9s1.1,0.7,1.7,1.1c1.3,0.8,2.7,1.9,3.8,4.8c0.1,0.2,0.3,0.3,0.5,0.3
		c0.2,0,0.4-0.1,0.5-0.3c0.2-0.5,0.3-0.8,0.4-1c0-0.1,0.1-0.1,0.1-0.1c0.2,0.2,0.4,0.4,0.7,0.7c0.2,0.2,0.5,0.5,0.8,0.6
		c0.4,0.1,0.8,0.1,1.2-0.1c4.2-1.3,7.1-2,9-2.1c2-0.1,3.1,0.2,3.9,0.9c0.2,0.1,0.5,0.1,0.7,0c0.2-0.2,0.2-0.5,0.1-0.7
		c0,0-0.1-0.1-0.1-0.1c-2.1-3-4.2-4.1-6.3-4.4c-2.2-0.3-4.4,0.2-6.8-0.2c-2.5-0.4-3.9-1.1-5.3-1.6C271.2,94.7,270.4,94.5,269.6,94.4
		L269.6,94.4z M270.2,96c1.1,0.2,3.8,1.2,4.7,1.1c-0.7,2.3,0.6,3.2,1.7,3.8C273.3,101.4,270.3,96.4,270.2,96L270.2,96z M237.3,96.1
		c0.1,1.1,0.1,2.7-0.3,4c-0.3,0.8-0.7,1.4-1.4,1.7c-0.7,0.3-1.8,0.2-3.3-0.5c0,0,0,0,0,0c-1-0.6-4.2-2.1-7.5-3
		c-0.8-0.2-1.6-0.2-2.3-0.3C226.6,96.7,231.6,96.1,237.3,96.1L237.3,96.1z M281.9,97.6c1.7-0.2,3,0.8,1.5,1.7
		c-1.6,0.9-4.3,2.1-5.9,1.6c1.6-0.1,2.1-1.9,1.4-3.1C278.3,97.7,280.3,97.8,281.9,97.6z M289.4,103.1c-2.8-0.1-4.6,0.1-6,0.4
		c-1.4,0.4-2.3,1-3.3,1.7c-0.2,0.1-0.3,0.4-0.2,0.6c0,0.2,0.2,0.4,0.4,0.4c1,0.2,1.6,0.3,1.8,0.4c0.1,0.1,0.1,0.1,0.2,0.2
		c0.1,0.1,0.2,0.3,0.3,0.5c0.1,0.2,0.3,0.3,0.5,0.3c0.2,0,0.4-0.1,0.5-0.3c0.7-1.5,1.4-2.2,2.2-2.7c0.8-0.4,1.9-0.5,3.4-0.6
		c0.1,0,0.1,0,0.3,0v0c0,0,0,0,0,0c0.2-0.1,0.4-0.3,0.4-0.5C289.9,103.4,289.7,103.2,289.4,103.1
		C289.5,103.1,289.5,103.1,289.4,103.1C289.5,103.1,289.4,103.1,289.4,103.1L289.4,103.1z M590,107.1
		c-20.2,23.2-24.9,48.2-26.2,55.9c-2.7-4.6-5.9-9.7-3.9-16.1v0c4.8-11.6,6.5-13.5,19.3-30.1c0,0,0,0,0,0c0.2-0.2,0.1-0.5-0.1-0.7
		c-0.2-0.2-0.5-0.2-0.7,0c0,0,0,0,0,0c0,0,0,0,0,0c-0.1,0.1-0.1,0.1-0.1,0.2c0,0,0,0,0,0c-13.8,11.5-20,19.4-25.4,24.6
		c-5,4.9-9.5,7.4-18.7,8.8C550.9,135.3,558.6,122.5,590,107.1L590,107.1z M325.3,109.1c0.1,0,0.1,0,0.3,0.1c1.3,0.5,3,1.3,4.7,2.7
		c2.7,2.2,5.2,5.9,6.3,11.8c-1-1.5-2.3-2.6-3.7-3.1c-2.3-0.9-4.6-0.9-6.1-0.9c-0.1-1.2-0.2-2.6-0.4-3.8c1.8-0.1,3.6-0.1,5.5,1.8
		c0.2,0.2,0.5,0.2,0.7,0c0.2-0.2,0.2-0.5,0.1-0.7c0,0,0,0,0,0c-2.3-3.1-4.7-4.7-6.8-4.8C325.6,111.2,325.4,110.1,325.3,109.1
		L325.3,109.1z M201.5,114.4c0.4,0.2,0.8,0.3,1.2,0.5c6,4.4,11.1,6.9,16,7.8c5.2,0.9,10.1,0,15.7-2h0c1.2-0.5,3.5-1.1,6.2-1.5
		c2.7-0.4,6-0.7,9.2-0.7c3.2,0,6.3,0.2,8.8,0.8c1.7,0.4,3,1.1,3.9,1.9c-5-1-9.7-1.4-15.4-1.1c-0.1,0-0.3,0.1-0.4,0.2
		c-0.2,0.2-0.4,0.3-0.4,0.7c0,0.2,0.2,0.4,0.3,0.5s0.3,0.1,0.4,0.1c0.4,0.1,0.9,0,1.6-0.1c1.4-0.2,3.3-0.4,5.3-0.3
		c2,0.2,2.9,0.2,7.5,1.7c0.3,0.3,0.5,0.7,0.6,1.2c-0.2-0.1-0.3-0.1-0.6-0.2c-0.5-0.1-1.2-0.3-2.1-0.5c-1.8-0.4-4.2-0.8-7-1.1
		c-5.5-0.6-12.3-0.8-17.6,0.8h0c-4.7,1.9-10.8,2.9-16.8,1.9c-5.7-0.9-11.2-3.7-15.4-8.9C202.2,115.5,201.8,115,201.5,114.4
		L201.5,114.4z M571.5,124c-10.8,13.1-16.5,24.2-19.5,31.9c-1.8,4.6-2.7,8.1-3.4,10.1c-0.3,0.9-0.6,1.3-0.8,1.5
		c-1.4-1.1-2.8-2.2-4.3-3.1c0-0.5,0.1-1,0.4-1.9c0.4-1.2,1-2.6,1.9-4.3c1.7-3.3,4.2-7.6,7.4-12.2C558.1,139.1,564.4,131.2,571.5,124
		L571.5,124z M327.1,130.9c3.4,2.3,6.7,5,8.6,8.9c1.5,3.2,2,7.2,0.8,12.4c-0.3-2.5-1.4-4.7-3-6.1c-1.4-1.1-3-1.8-4.8-1.8
		c-1.1,0-2.3,0.4-3.4,0.9c0.3-2,0.6-4,0.9-5.8c0.5-0.1,1.1-0.2,1.9,0.1c1,0.3,2,0.9,3,1.7c1,0.7,1.9,1.6,2.6,2.4
		c0.7,0.8,1.1,1.7,1.1,2.3c0,0.3,0.2,0.5,0.5,0.5c0.3,0,0.5-0.2,0.5-0.5c0-0.8-0.4-1.5-0.9-2.3c-0.2-0.3-0.2-0.6-0.4-0.9
		c-0.7-1.1-1.7-2.3-2.8-3.3c-1-1-2.2-2-3.2-2.7c-0.8-0.5-1.4-0.9-2.1-1C326.8,134.2,327,132.4,327.1,130.9L327.1,130.9z
		 M289.5,132.9c1.1,2.8,1.4,5,1,6.7c-0.5,1.9-1.6,3.3-3.3,4.4c-2.9,2-7.1,2.8-11,3.5c-0.4-0.1-1.1-0.2-1.3-0.3
		c-0.2-0.1-0.3-0.3-0.3-0.4c0-0.1,0-0.2,0-0.3c0,0,0.1-0.1,0.1-0.1c0.2-0.2,0.2-0.4,0.6-0.6c0.6-0.5,1.5-1.1,2.5-1.8
		c2-1.3,4.5-3.1,7-5.3C286.5,137,288,135.1,289.5,132.9L289.5,132.9z M359.9,135c40,1.5,50.6,4.3,77,7.4c18.3,2.1,35,7,47.1,10
		c0.1,0,0.1,0,0.2,0.1c-11.8,2.9-17.2,10.3-18.8,17.7c-0.9,4.3-0.7,8.4,0,11.8c0.2,1.1,0.6,2,1,2.9c-14.1-8.6-36.4-18.9-57.6-27.7
		c-11.6-4.8-22.8-9.1-31.9-12.4c-7.9-2.8-13.6-4.6-17.4-5.5C359.1,137.8,359.1,136.2,359.9,135z M356.8,144.6c0.5,0.1,1,0.2,2,0.5
		c1.3,0.4,2.9,1,4.8,1.7c3.8,1.4,8.7,3.3,14.2,5.5c10.8,4.4,23.7,9.8,33.7,14c11,4.6,26.3,13.6,38.9,20.6c0.6,0.3,1.1,0.6,1.7,1
		c-0.6,0-1.1-0.1-1.7-0.1c-4.2,0.1-9.2,1-14.2,2.8c-9.5,3.5-18.9,11-22.1,24.4c-0.4-0.5-0.6-0.9-1-1.5c-5.6-7.7-15.4-19.5-28.8-36.7
		c-8.3-10.6-16.5-18.4-21.8-23.9c-2.6-2.8-4.6-5-5.3-6.6C356.8,145.7,356.7,145.1,356.8,144.6L356.8,144.6z M288.7,145.8
		c0.6,3.3,0.7,5.7,0.2,7.3c-0.5,1.8-1.4,2.7-2.8,3.4c-2.1,0.9-5.4,1-9.1,1.2c-1.4-0.2-2.2-0.7-2.7-1.3c-0.5-0.7-0.6-1.5-0.5-2.5
		c0.2-1.9,1.5-4.1,2.7-5.2h0.1c0.4,0,0.4,0,1.1,0c0.1,0,0.1-0.1,0.2-0.2C282.2,148.2,286.1,147.6,288.7,145.8L288.7,145.8z
		 M503.1,153c0.1,0.1,0.2,0.1,0.2,0.2c0.3,0.6,0.3,1.4,0,2.3c-0.3,0.9-1,1.7-1.7,2.3c0,0-0.1,0-0.1,0c0.4-0.5,0.7-1.1,0.8-1.7
		c0.1-0.7,0-1.4-0.2-2.1c0.1-0.1,0.3-0.1,0.4-0.2C502.7,153.6,502.9,153.3,503.1,153z M355.2,153.9c0.3,0.1,0.4,0.1,0.7,0.4
		c1.6,1.3,4,4,6.8,7.4c5.6,6.8,12.9,16.7,19.9,25.5c7.3,9.2,13.2,19.8,18.4,27.7c0.8,1.3,1.6,2.3,2.4,3.4c-2.5-0.7-5.2-1.3-8.3-1.3
		c-1.7,0-3.4,0.1-5.1,0.4c-6.6,1.1-13.6,4.9-18.8,13.1c-1.1-6.7-3.5-15-6.3-24.5c-4.2-13.9-6.7-19.2-8.4-22.5
		c-1.7-3.3-2.6-4.8-3.9-11c0,0,0,0,0-0.1c-0.2-2.7,0.3-7.9,1-12.2c0.4-2.2,0.8-4.1,1.2-5.4C355,154.3,355.1,154.2,355.2,153.9
		L355.2,153.9z M323.7,155.7c0.7,1,1.6,2,2.8,3c1.7,1.5,3.8,3,5.3,5c1.6,2,2.7,4.3,2.5,7.5c-0.1,2.4-1.2,5.4-3.1,8.8
		c0.2-1.6,0.2-3.1-0.4-4.3c-0.9-2.1-2.6-3.5-4.4-4.6c-1.8-1.1-3.7-1.7-5-2.2c-0.3-0.1-0.4-0.2-0.6-0.3c0.4-1.4,0.8-2.4,1.5-2.8
		c0.8-0.6,1.9-0.6,3.1-0.2c1.2,0.4,2.3,1.1,3.3,2c1,0.8,1.7,1.8,1.8,2.2c0.1,0.3,0.4,0.4,0.7,0.3c0.3-0.1,0.4-0.4,0.3-0.7
		c0,0,0,0,0,0c0,0,0-0.1,0-0.1c-1.5-4-4.4-5.2-6.2-6.5c-0.9-0.7-1.6-1.3-1.9-2.5C323.1,159.4,323.3,157.8,323.7,155.7L323.7,155.7z
		 M197,156.9c3.9-0.1,6.8,1.4,8.3,4.1c-0.5,0.3-0.9,0.3-1.6,0.5c-0.4-1.5-2.8-3.2-5-3.5c-0.2-0.1-0.4-0.1-0.6,0
		c-0.2,0.1-0.3,0.3-0.3,0.5c0,0.2,0.2,0.4,0.4,0.5c1.5,0.8,3.3,1.4,2.6,2.8c-0.8,0-1.3,0-1.9,0c0-1.5-3.2-2.9-6.1-4.1
		C194.3,157.1,195.7,156.9,197,156.9L197,156.9z M285.9,158.8c0.3,4-0.5,6.2-1.8,7.5c-1.4,1.3-3.4,1.7-5.7,1.6
		c-2.3-0.1-4.7-0.5-6.8-0.8c-0.1-0.1-0.1-0.2-0.2-0.2h-0.1c-0.6,0-1.1-0.2-1.3-0.4c-0.3-0.2-0.4-0.5-0.4-0.8c0-0.7,0.4-1.8,1.2-2.9
		c0.8-1.1,1.8-2.2,2.8-2.9c0.9-0.7,1.7-0.9,2.2-0.9c3.6,0,7,0.1,9.1-0.1C285.2,158.9,285.5,158.8,285.9,158.8L285.9,158.8z
		 M525.4,161.7c15.6,0,35.3,16,35.3,38.8c0,15.8-9.1,42.3-42.9,53.8c-9.5-18.7-27.5-35.3-50.7-43.3c-0.1-0.1-0.2-0.1-0.3,0
		c-0.2,0.1-0.4,0.3-0.4,0.5c0,0.2,0.2,0.5,0.4,0.5c25.3,8.7,42.2,28.4,50.6,49.1c2.2,5.5,7.7,13.1,13.2,18.2
		c5.5,5.1,11.8,8.4,17.9,8.6c4.1,0.1,8.8,2.5,10.8,7.9c1.5,4.3,1.4,9.7-2.5,15.6c0.7-2.6,0.1-4.8-0.8-6.3c-1.5-2.4-4.7-3.4-6.7-3.3
		c-3.6,0.1-5.7,1.8-10.7,4.4c-0.3,0.1-0.4,0.5-0.2,0.7c0.1,0.1,1.8,0.3,3.7,0.4c0.2,2.9,4.6,33.2,5.3,37.5
		c3.3,21.1,17.9,10.8,20.4,11.2c4.8,0.7,5.8,2.1,7.3,3.6c-1.6,0.1-2.9,5-2.1,8.2c-5.9,4.3-11.8-2.2-16.1-2.3
		c-5,0.1-10.4,3.6-16.2,5.4c-5.3,1.7-7.9,3-14.5-0.1c1-0.3,2.3-0.7,2.3-0.7c0.1,0,0.3,0,0.4,0c0.1,0,0.1,0,0.2,0
		c0.2,0,0.4-0.1,0.5-0.3c0.1-0.2,0.1-0.4-0.1-0.6c-0.1-0.1-0.4-0.2-0.6-0.1c0.1,0,0,0-0.1,0h-0.3c-0.3,0-0.6,0-1.1,0
		c-0.9,0-2.1,0-3.3,0c-2.5,0-5.1,0-6.2,0c-2.8,0-6.9,0.8-10.3,2.7c-3.4,1.9-6,4.1-9.1,4.1c-1.8,0-3.6-0.3-5.2-1.5
		c0.8-2.9,0.7-6.6-1.5-9.8l-0.5,0c3.7-0.5,5-2.4,7.4-2.4c2.9-0.1,2.8,5.7,17.6-3.8c0.2-0.1,0.3-0.3,0.3-0.5c0-0.2-0.1-0.4-0.3-0.5
		c-0.2-0.1-0.4-0.1-0.6,0.1c-13.1,5.9-9,1.5-15.7,1.8c-6.4,0.3-6.6,2.4-10.4,2.4c-2,0-4.3-1-4.8-1.9c1.5-0.3,2-5.3,1.3-7.8
		c0-0.1,0.1-0.2,0.1-0.3c0.1-0.2-0.1-0.5-0.2-0.6c0.8-1,3.1-1.4,5.2-1.4c1.9,0,4.4,1.8,7.3,3c2.9,1.2,5.5-1,9,1.3
		c0.3,0.1,0.6,0.1,0.7-0.2c0.1-0.3,0.1-0.6-0.2-0.7c-1.2-0.7-3.9-3.5-6.8-4.7c-1.8-0.8-4-1.3-6-1.6c-1.4-1.3-3.8-3.6-3.5-3.8
		c0.7-0.4,1.4-1,2-1.8c0.6-0.7,1.1-1.6,1.3-2.5c0.1-0.6-0.1-0.9-0.3-1.3c0.1-0.2,0.1-0.3,0.2-0.6c0.8-0.8,1.2-1.3,2.3-1.4
		c1.7,0.2,2.7,0.8,4.1,2.2c1.4,1.4,2.9,3.5,4.3,6c2,3.7,4.8,5.7,7.6,7.6c-0.9,0.7-2,1.6-2,1.6c-0.1,0-0.2-0.1-0.5,0.1
		c-0.3,0.1-0.4,0.4-0.3,0.7c0.1,0.3,0.4,0.4,0.7,0.3c0.1,0,0.2,0,0.3,0c0.3,0.1,0.7,0.2,1.2,0.3c1,0.2,2.3,0.5,3.7,0.7
		c1.4,0.2,2.8,0.3,4.1,0s2.5-0.8,3.1-2c4.4-7.9,4-19.8,1.5-30.3c-2.5-10.5-10-24.8-10.3-24.9c-0.3-3.5-8.9-14.1-10.8-11.7
		c0-0.4,0.1-0.8,0-1.2c-0.2-0.7-0.6-1.4-1.1-2.2c-1-1.5-2.4-3.1-3.9-4.4c-1.5-1.3-3.1-2.3-4.6-2.6c-0.7-0.1-1.5,0-2.1,0.4
		c-0.2,0.1-0.2,0.4-0.3,0.5c-0.2-0.8-0.6-1.5-1.2-2.3c-1.1-1.5-2.6-3-4.2-4.2c-1.6-1.2-3.3-2.1-4.7-2.4c-0.7-0.1-1.5-0.1-2,0.2
		c-0.1,0-0.1,0.1-0.1,0.2c-0.2-0.6-0.5-1.2-0.9-1.8c-1-1.4-2.6-3-4.4-4.2c-1.8-1.2-3.7-2.1-5.5-2c-1,0-1.9,0.5-2.7,1.2
		c-0.1-1.2-0.4-2.3-1-3.4c-1.1-2-2.9-3.9-4.9-5.2c-2-1.3-4.1-2.2-5.9-2.1c-0.9,0.1-1.8,0.4-2.4,1l0,0c-0.2-1.2-0.6-2.4-1.4-3.3
		c-1.4-1.7-3.5-2.9-5.7-3.6c-2.1-0.7-4.3-1-6.1-0.6c-0.9,0.2-1.6,0.5-2.2,1c-0.1,0.1-0.2,0.3-0.3,0.5c-0.1-0.1,0-0.2-0.1-0.3
		c-0.5-0.6-1.2-1.2-2-1.7c-1.7-1-3.9-1.8-6.2-2.1c-1.1-0.2-2.3-0.2-3.3-0.2c-1.1,0.1-2,0.3-2.8,0.7c-1,0.5-1.7,1.5-2,2.8
		c-0.6-0.9-1.4-1.7-2.4-2.1c-1.8-0.7-4.1-0.7-6.3-0.3c-2.2,0.4-4.3,1.2-5.7,2.3c-0.4,0.3-0.6,0.7-0.9,1.1c-0.3-0.2-0.5-0.6-0.9-0.7
		c-1.5-0.7-3.8-0.9-6-0.8c-2.2,0.2-4.4,0.7-5.9,1.9c-0.8,0.6-1.3,1.3-1.6,2.2c0,0.1,0,0.1,0,0.2c-0.5-0.3-0.9-0.6-1.6-0.7
		c-2-0.4-4.6-0.2-7,0.5c-2.4,0.7-4.6,1.7-5.8,3.3c-0.5,0.7-0.8,1.5-0.7,2.4c-0.4-0.1-0.7-0.4-1.2-0.4c-2-0.3-4.5,0.2-6.8,1
		c-2.2,0.8-4.2,2-5.2,3.5c-0.4,0.5-0.5,1.1-0.6,1.7c-0.7-0.3-1.3-0.6-2.1-0.6c-2.1-0.1-4.5,0.5-6.6,1.5c-2.1,1-3.9,2.4-4.7,4
		c-0.2,0.4-0.3,0.8-0.4,1.2c-0.8-0.1-1.6-0.2-2.4-0.1c-0.7,0.1,0.6-2.3,1.8-4.6c0.9-1.1,1.6-2.2,2.6-3.4c0.3-0.1,0.5-0.3,0.4-0.6
		c-0.1-0.3-0.4-0.5-0.7-0.4c-0.1,0-0.1,0-0.2,0.1c-5.1,2.4-9.4,8.7-12.4,15.9c-3,7.2-4.8,15.4-4.7,21.7v0.1c0.7,6.1,3,9.1,4.4,12
		c1.4,2.8,1.9,5.5-0.5,11.6c0,0,0,0,0,0c-1.5,3.1-1.8,3.9-6,6.1c4.7-9.8-10.2-15.6-26.7-6.4c-0.2,0.1-0.3,0.3-0.3,0.5
		c0,0.2,0.1,0.4,0.3,0.5c0.2,0.1,0.4,0.1,0.6,0c1.2-0.2,1.9-0.3,3-0.5c2.1,4-6.7,12.4-12.2,20.3c-2.9,4.2-10.7,14.9-10.7,19.9
		c0,5,1.2,7.5,5.2,7.4c1,0,2.9,0.1,5.2-0.4c2.3-0.5,5.6-1.8,7.7-1.8c2,0,3.3,0.2,5.3,1.8c-0.6,0.2-4.7,7.5-2.1,10.4
		c-0.2,0.5-2.1,0.8-2.7,0.8c-1.2,0-4.3-1.3-6-1.9c-3.5-1.2-5.1-2.1-8.8-2c-3.8,0.1-9.5,1.6-13.7,3.1c-4.1,1.4-7.8,2.5-16.9,2.8
		c-1.2,0-2.4-0.2-3.6-0.5c1.5-2.4,2.4-3,2.5-3c0.1,0,0.1,0,0.2,0c0.2,0,0.4-0.1,0.5-0.3c0.1-0.2,0-0.4-0.1-0.6
		c-0.1-0.1-0.4-0.2-0.6-0.1c0.1,0,0,0-0.1,0c-0.1,0-0.2,0-0.3,0c-0.3,0-0.6,0-1.1,0c-0.9,0-9.5,1.6-12.9,3.4
		c-3.4,1.9-5.3,6.2-8.4,6.1c-1.8,0-2.5,0-4-1.2c1.5-7.1-3.6-9.2-1.3-11c2.4,0.3,11.3,1.5,19.6-3.8c0.2-0.1,0.3-0.3,0.3-0.5
		c0-0.2-0.1-0.4-0.3-0.5c-0.2-0.1-0.4-0.1-0.6,0.1c-4.7,3-8.1-2.5-11.8-2.2c-6.4,0.5-4.9,1.7-8.8,1.6c-2,0-4.3-1-4.8-1.9
		c1.3-2.8,3.5-6.7,2.3-8.9c0.8-1.1,2-1.2,4-1.2c1.8,0,2.8,1.7,5.6,3c10.3,5.3,7.2,1.1,15.1,4c0.3,0.1,0.6,0.1,0.7-0.2
		c0.1-0.3,0.3-1.4-0.7-1.5c-8.8-1.3-11.3-4.9-13.3-6.9c-0.6-0.6-2.1-1-3.7-1.4c-4.3-4-4.3-7.5-3.9-7.7c0.7-0.4,3-3.5,2.5-4.3
		c0.9-1.1,1.6-0.7,2.9-0.9c4.3,0.1,8.9,6.7,7.6,9.2c-0.1,0.1,3.8,3.7,6.1,6.5c1.8,2.3,5.7,6.9,10.8,6c0.1,0.1,0.1,0.3,0.3,0.3
		c0.2,0.1,0.4,0,0.5-0.1c9.6-8.7,16.6-22.7,21.2-35.2c2.3-6.2,4-12.1,5.2-16.7c1.1-4.6,1.7-7.8,1.7-9.2c0-7-1.6-18.1-1.5-28.9
		c0.1-9.9,1.9-19.4,7.5-25.3c1.4-0.3,2.8-0.6,4.2-1.2c3.6-1.3,7.1-3.5,9.8-6.7c0.1,0.8,0.3,1.7,0.5,2.6c0.6,2.1,1.6,4.4,3,6.6
		c2.8,4.4,7,8.3,12.6,9.1h0c0,0,0.1,0,0.1,0c0.3,0.1,0.6-0.1,0.7-0.4c0-0.1-0.1-0.1-0.1-0.1c0,0,0,0,0,0c0-0.2-0.1-0.4-0.3-0.5
		c-0.1,0-0.1,0-0.2-0.1c-0.7-0.1-1.2-0.4-1.5-0.9c-0.3-0.5-0.5-1.1-0.5-2c-0.1-1.7,0.5-3.9,1.4-6.2c0.7-1.8,1.5-3.5,2.3-5.1
		c1.6,3.5,4,7.2,7.9,9.7c4.5,2.8,10.7,3.6,18.7,0.1c0,0,0,0,0.1,0c0.1,0,0.1,0,0.2-0.1c0.1-0.1,0.1-0.2,0.1-0.3
		c0.1-0.1,0.2-0.1,0.2-0.1c0-0.1-0.1-0.1-0.1-0.2c0,0,0,0,0,0c0-0.2,0-0.4-0.2-0.4c-6-2.9-7.6-6.4-7.8-9.8c-0.1-1.8,0.3-3.6,0.8-5.3
		c3.2,3.6,7,6.4,10.4,7.8c1.9,0.7,3.6,1,5,0.7c0.7-0.1,1.3-0.5,1.7-1c0.2,0.7,0.5,1.4,0.9,1.9c0.4,0.5,0.9,0.8,1.5,1
		c0.1,1.2-0.1,2-0.6,2.6c-0.6,0.7-1.6,0.9-2.4,0.7h0h0h0h-0.1l-0.1,0h0c0,0-0.1,0-0.1,0c0,0-0.1,0.1-0.1,0.1c0,0,0,0-0.1,0.1l0,0.1
		c-0.1,0.1-0.1,0.2,0,0.3v0c0,0,0,0.1,0,0.1v0l0,0.1c0.1,0.1,0.2,0.1,0.3,0.2c0,0,0,0,0,0.1c0.4,0.4,0.8,0.8,1.3,1
		c0.2,0.1,0.4,0.1,0.6,0.2c0.2,0,0.4,0.1,0.6,0.2c0.2,0,0.3-0.1,0.5-0.1c0.3,0,0.6,0.1,0.9,0.1c1.6-0.2,3.3-1.1,4.7-2.3
		c1.4-1.2,2.6-2.6,3.2-4.1c0.6-1.5,0.6-3.3-0.4-4.6c-0.1-0.1-0.1,0-0.2-0.1c0.2-1.2,0.2-2.6,0.1-4.1c0.5-1.6,1.7-3.6,3.7-5.7
		c2.2-2.2,5.1-4.5,8.6-6.1c6.6-3.1,15-4,23.9,0.6c0.1,0.1,0.3,0.3,0.4,0.5c0.7,0.7,1.5,1,2.2,1.4c0.2,1.3-0.1,2.2-0.7,2.6
		c-0.6,0.5-1.6,0.6-2.5,0.5c0,0-0.1,0-0.1,0c-0.1,0-0.1,0-0.2,0c-0.1,0-0.2,0.1-0.3,0.1c-0.1,0.1-0.1,0.1-0.1,0.2v0
		c0,0.1,0,0.2,0,0.4v0l0,0v0h0c0.1,0.1,0.1,0.1,0.2,0.2c0.4,0.5,0.8,0.8,1.3,1.1c0.2,0.1,0.4,0.2,0.6,0.3c0.3,0.1,0.5,0.1,0.8,0.2
		c0.3,0.1,0.6,0.2,0.9,0.2c1.5,0.1,3.1-0.4,4.4-1.2c1.3-0.8,2.4-1.8,3-3.1c0.3-0.8,0.3-1.7,0.1-2.6c0.3-0.7,0.3-1.5,0.1-2.4
		c-0.2-0.7-0.7-1.7-1.2-2.6c0-1.1,0.1-2.2,0.2-3.3c1.8-5.5,4.6-8.8,8.4-10.7c4.1-2.1,9.4-2.8,15.3-2.7c20,0.3,33.8,4.8,44.7,9.2
		c10.9,4.4,19.1,8.9,27.8,8.7c8.3-0.2,15.9-2.1,21.6-6.4c5.7-4.2,9.2-10.8,9.2-19.6c0-3.3-1.1-6.1-2.5-8.7
		c-2.6-4.8-6.9-8.5-11.5-10.2c-1.7-0.6-3.5-1-5.2-1c-1.7,0-3.3,0.3-4.8,1c-2.9,1.4-4.9,4.6-4.9,9.1c0,4.7,3.9,8.1,8.4,8.2
		c4.4,0.1,9-3.3,11.2-10.6c1.6,1.4,3.1,3.1,4.2,5.1c-0.9,7-4.2,11.2-8.1,13.8c-4,2.6-8.7,3.6-12.2,3.8c-9.2,0.5-19.5-8.9-19.4-22
		C499.5,171.7,509.6,161.6,525.4,161.7L525.4,161.7z M207.6,162.7c4.9,4.5,0.1,7.8,0.9,12.8c3.4,20.8,12.2,23.4,13.7,32.4
		c4.8,30.1,18.3,44.5,19.2,45.5c0.4,0.7,1,1.3,1.7,1.6c-0.3,2.4,0.3,6.1,1.5,9.5c1.2,3.3,3.1,6.3,5.6,7.6v0c0.1,2.7,1.1,6,2.7,8.9
		c1.6,2.8,3.8,5.1,6.5,5.8c1,1,1.6,1.5,2.5,2.4c2.2,4.9-12.6,10.3-19,12.2c-2.3,6.5-9.9,11.8-15.6,11.6c-4.2-0.1-4.5-0.8-7.1-2.2
		c9.2-1.7,12.7-1.4,12.2-22.8c0-0.5,0-0.8,0-1.1c0-0.1,0-0.2,0-0.3c0,0,0-0.1,0-0.1c0,0,0-0.1-0.1-0.2c-0.1-0.2-0.3-0.4-0.5-0.4
		c-0.2,0-0.3,0.1-0.4,0.2c-0.1,0.1-0.1,0.3-0.1,0.5v0v0c-4.4,13.1-16.6-37.6-19.2-56.1c-0.6-4.4,4-13.7,3.6-18.8
		c0.2-0.1-1.1-0.3-1.2-0.2c-0.4,2.2-1.3,4.7-2.3,7.2c0,0,0,0,0,0c-0.3,0.2-0.7,0.4-1.1,0.8c-0.8,0.7-1.7,1.7-2.6,3
		c-1.7,2.6-3.7,4.2-1.3,10.5c0.9,2.3-3.3,6.7-4.9,7.6c0.1-3.8-6.1-4.9-7.2-4.4c-0.6-4.1,1.3-9.4,4.1-11.8c3.2-3.2,5.8-13.7,3.8-18.5
		c-0.2-0.5-0.7-0.8-1.2-0.7c-0.3,0.1-0.6,0.3-0.7,0.5c-0.1,0.3-0.2,0.6-0.1,0.9c0.4,0.7,0.5,1.6,0.6,2.6c0,0,0,0,0,0
		c-1.5,1.2-4.9-5.6-2-7.6c0.5,0.1,1.2,0.3,1.6,0.2c0.6-0.1,1-0.7,0.9-1.3c-0.1-0.6-0.7-0.9-1.3-0.8c-1.9,0.4-7.8-1.6-11.4-3.9
		c-10.5,3.6-12.5,3.1-15.4-0.5c1.8-2.3,0.3-6.2,0.2-6.4c2-1.8,3.9-1.9,6-1.5c1.1,0.2,4.3,1.1,6.2,2.9c3.7-1.3,9.8,1.6,10.6,4.3
		c0.1,0.4,0.4,0.6,0.7,0.7c0,0,0.1,0.3,0.2,0.3c0.4,0.1,0.8,0,1.1-0.3s0.3-0.7,0.2-1.1c-0.7-2.6-3.8-15.1-13-15.2h0
		c0.1,0-4.7-1-4.9-6.1c1.7-0.6,5.6-3.5,5.3-6.8c0.1,0,0.1,0,0.2,0c4.6,1.3,6.7,6.1,6.7,8.3c1.8,1.3,8.2,3,9.9,19.8
		c0,0.4,0.2,0.8,0.6,1c0.4,0.2,0.8,0.2,1.2-0.1c0.3-0.3,0.5-0.7,0.4-1.1c-0.4-4.1-1.1-7.4-2-10.1c0.1-4.7-0.8-7.9-4.1-12
		c0-0.1-0.1-0.1-0.1-0.2c-1.6-2.8-1.9-5.7,0.1-7.9C202.6,164.4,207.3,162.7,207.6,162.7L207.6,162.7z M180.1,165.7
		c1.3,0,2.5,0.1,3.7,0.3c0.1,0.4,0.1,1.6,0,2.4c-0.1,0.2-0.3,0.4-0.5,0.5c-2.2-0.4-6.5-2.3-8.1-0.2c-0.2,0.1-0.4,0.3-0.4,0.4
		c0,0.2,0.3,0.3,0.5,0.4c0.3,0.1,0.6,0,0.8-0.1c1.8-0.5,4.6,0.1,5.3,1.2c-0.3,0.2-0.6,0.3-0.9,0.5c-1.9-0.5-4.9-0.9-7.9,0.9
		C172.6,167.3,176.3,165.8,180.1,165.7L180.1,165.7z M267.6,169c1.2,0,2.8,0.1,4.8,0.4c2.4,0.4,5,0.8,7.5,0.6c0.5,0,0.9-0.2,1.3-0.3
		c0.8,4.1,0.2,6.4-1.2,7.7c-1.5,1.3-4,1.7-6.8,1.6c-2.8-0.1-5.9-0.7-8.5-1c-0.4-0.1-0.8,0-1.2-0.1c-0.4-0.1-0.8-0.2-1.1-0.3
		c-0.3-0.2-0.5-0.4-0.6-0.8c-0.2-0.6,0.1-1.7,0.7-2.8C263.7,172.2,265.9,170.1,267.6,169L267.6,169z M261,179.8
		c1.3,0.1,2.6,0.1,4.7,0.4c2.8,0.4,5.9,0.9,8.9,0.8c0.5,0,0.9-0.2,1.3-0.2c0.7,5-0.1,7.6-1.8,8.9c-1.6,1.3-4.2,1.5-7.2,1.3
		c-3-0.2-6.2-0.8-9.1-0.9c-0.7,0-1.3,0.2-1.9,0.2c-0.1,0-0.1-0.1-0.2-0.1c-0.2,0-0.4,0-0.5,0c-0.2-0.2-0.4-0.3-0.5-0.6
		c-0.2-0.7,0-2.1,0.7-3.5C256.6,183.8,258.9,181.3,261,179.8L261,179.8z M319.1,182.2c3.6,0.7,6.8,2.6,8.7,5.3
		c1.8,2.6,2.5,6,1.3,9.9c-0.3-1.1-0.7-2-1.4-2.5c-1-0.9-2.2-1.1-3.4-1c-1.9,0.1-3.6,0.8-4.7,1.3c-0.1-0.5-0.3-0.8-0.4-1.4
		c-0.2-1-0.2-2.2-0.3-3.3c0.6-0.2,1.4-0.3,2.5-0.2c2.2,0.1,4.9,1,6.2,2.1c0.2,0.2,0.5,0.1,0.7-0.1c0.2-0.2,0.2-0.5,0-0.7
		c-3.1-2.7-5.4-3.3-7-3.7c-0.8-0.2-1.5-0.4-2-0.7c-0.2-0.1-0.4-0.6-0.6-0.8C318.9,185.1,319,183.7,319.1,182.2L319.1,182.2z
		 M349.2,186.7c0.2,0,0.6,0.2,1.1,0.7c0.4,0.5,0.9,1.4,1.4,2.4c1,2,2,4.9,2.9,7.9c1.8,6,3.4,13,3.9,16.4c1.9,11.8,1.9,19.5,2.4,24.2
		c0,0.5,0.1,0.8,0.2,1.2c-0.8,0.5-1.7,0.7-2.9,0.5c-1.5-0.2-3.2-1-4.9-2c-3.3-2-6.4-5.2-7.8-7.9c0-0.1,0-0.2-0.1-0.3
		c-0.1-0.1-0.3-0.2-0.5-0.2h0c0,0,0,0-0.1,0c-0.3,0-0.5,0.2-0.5,0.4c0,0.2,0,0.2-0.1,0.3c-2.5,2.9-3.7,5.5-4,7.9
		c-0.3,2.5,0.5,4.6,1.7,6.4s3,3.1,4.6,4c0.9,0.5,1.6,0.6,2.4,0.9c-3.2,0.4-7.2,1-11-0.2c-4.5-1.3-8.7-5-10.6-14.2c0,0-0.1,0-0.1,0
		c0-0.1,0.1-0.2,0.1-0.3c-0.1-0.2-0.3-0.3-0.6-0.3c-0.1,0-0.2,0.1-0.3,0.1c0,0,0,0-0.1,0.1c-4,3.1-6.6,8-7.4,12.3
		c-0.4,2.2-0.4,4.2,0.1,5.8c0,0.1,0.2,0.1,0.2,0.3c-4.1-2.4-6.6-5.3-8-8.6c-1.7-4-1.8-8.6-1.2-13.3c0.1-0.2,0.2-0.3,0.3-0.4
		c0.1-0.1,0.1-0.1,0.1-0.1c0.1-0.1,0.1-0.1,0.1-0.2c0,0,0,0,0,0c0,0,0.1-0.1,0.1-0.1c0,0,0,0,0.1-0.2c0,0,0-0.1,0-0.1V230l-0.1-0.2
		l-0.2-0.2l-0.2-0.1l-0.1,0c0,0-0.1,0.1-0.1,0.1c-0.1,0.1-0.1,0.1-0.1,0.1c0,0,0,0-0.1,0c-0.2,0-0.3,0.1-0.4,0.3
		c-1.6,2.7-5.7,7-10.8,9.9c-4.5,2.6-9.8,3.9-14.8,2.4c3.1-10.2,8.6-16.5,14.6-20.1c5.7-3.4,11.7-4.2,16.1-3.8c0,0,0,0,0,0.1
		c-0.7,2.5-1,5.8-1.1,9.6v0v0.1c0,0.3,0.2,0.5,0.5,0.6c0.3,0,0.5-0.2,0.6-0.5v-0.1c0,0,0.1,0,0.1-0.1c0.6-3.1,2.9-7,5.7-9.8
		c1.4-1.4,2.9-2.5,4.4-3.1c1.1-0.5,2.1-0.5,3-0.4c-0.1,1-0.3,1.8-0.3,2.9c-0.2,4.4-0.1,9.7-0.1,13.5v0.1c0,0.3,0.2,0.5,0.4,0.5h0
		c0,0,0,0,0,0c0.1,0,0.2-0.1,0.3-0.2c0.1-0.1,0.2-0.1,0.3-0.2c0,0,0,0,0-0.1c0,0,0,0,0,0c0,0,0-0.1,0-0.1c1.8-7.8,3.7-14.4,5.5-18.7
		c0.9-2.1,1.8-3.6,2.6-4.3c0.4-0.3,0.7-0.5,1-0.5c0.2,0,0.5,0.2,0.7,0.4c0,0,0,0.1,0,0.1c0.1,0.3,0.2,0.9,0.3,1.5
		c0.2,1.3,0.4,3.1,0.6,5.1c0.4,4,0.7,8.8,0.9,12c0,0,0,0.1,0,0.1c0,0.3,0.2,0.5,0.5,0.5c0.3,0,0.5-0.2,0.5-0.5c0,0,0-0.1,0-0.1
		c0.4-10.4,2.5-21.2,4.6-29.3c1-4.1,2.1-7.5,2.9-9.8C349,187.3,349.1,187.1,349.2,186.7L349.2,186.7z M172.7,189.7
		c0.2,0.6,0.3,0.7,0.4,1.6c-1.3,0.1-2.8,0.4-4,1.9c-0.1,0.1-0.2,0.3-0.1,0.5c0,0.2,0.2,0.3,0.4,0.3c0.2,0,0.4-0.1,0.5-0.2
		c0.9-1,2.3-1,3.4-0.8c0,0.8-0.3,1.6-0.6,2.5c-1.3-0.2-3.1-0.3-4.5,1.8C166.8,192,170.4,190.1,172.7,189.7L172.7,189.7z
		 M255.4,192.5c1.4-0.1,2.9-0.1,4.4,0.1c3.1,0.3,6.3,0.9,9.3,1c1,0,1.8-0.1,2.7-0.3c0.7,5.2-0.3,8.2-2.2,9.8
		c-1.9,1.7-4.8,2.2-8.1,2.2c-3.3,0-6.8-0.4-9.9-0.3c-1.5,0-2.8,0.2-4,0.6c-0.4-0.1-0.6-0.4-0.7-0.9c-0.2-1.1,0.4-3.1,1.5-5.2
		c1.1-2.1,2.7-4.3,4.3-5.8c0.4-0.4,0.8-0.6,1.2-0.9C254.4,192.8,254.9,192.6,255.4,192.5L255.4,192.5z M469.9,196.1
		c0.3,0.1,0.8,0.3,1.1,0.3c-0.1,0.6-0.4,1.2-0.8,1.7c-0.1,0.1-0.2,0.1-0.3,0.2c0.2-0.4,0.3-0.9,0.2-1.4
		C470.1,196.7,470,196.4,469.9,196.1z M268.9,206.7c1.4,4.9,0.8,7.8-0.9,9.5c-1.8,1.8-5,2.6-8.6,3.1c-3.6,0.5-7.5,0.6-10.9,1.4
		c-1.4,0.3-2.6,0.9-3.7,1.5c-0.2-0.2-0.4-0.3-0.6-0.6c-0.5-1.1-0.6-3-0.3-5.1c0.3-2.1,0.9-4.3,1.6-6c0.4-0.8,0.8-1.6,1.2-2.1
		c0.2-0.2,0.3-0.2,0.4-0.3c2-0.5,4.2-0.8,6.8-0.7c3.5,0.1,7.2,0.4,10.5,0.1C266,207.5,267.6,207.2,268.9,206.7L268.9,206.7z
		 M266.7,220.3c1.3,2.4,2.1,4.3,2.3,5.8c0.2,1.6,0,2.7-0.7,3.6c-1.3,1.8-4.3,2.7-7.9,3.4c-3.6,0.6-7.8,1-11.4,1.9
		c-1.9,0.5-3.6,1.2-5,2.2c-0.3-0.1-0.5-0.3-0.7-0.6c-0.5-1-0.6-2.7-0.4-4.6c0.2-1.9,0.8-4,1.6-5.5c0.4-0.8,0.7-1.5,1.1-1.9
		c0.2-0.3,0.4-0.3,0.6-0.4c1.2-0.5,2.6-0.9,4.1-1.1c3.6-0.6,7.6-0.7,11.3-1.3C263.4,221.3,265.2,220.9,266.7,220.3L266.7,220.3z
		 M415,226.6c0,1.8-1.2,3-2.6,3.5c-0.8,0.3-1.6,0.3-2.3,0.2c-0.1,0-0.2-0.1-0.3-0.1c-0.2-0.1-0.4-0.2-0.6-0.3c1.5,0,2.8-0.4,3.6-1.2
		c0.5-0.6,0.9-1.2,1.1-1.8c0-0.1,0-0.1,0-0.1C414.3,226.8,414.6,226.7,415,226.6L415,226.6z M267.9,234.1c1.3,1.6,2.1,3,2.4,4.2
		c0.3,1.3,0.2,2.3-0.3,3.3c-1,1.9-3.5,3.6-6.7,5c-3.2,1.4-7,2.6-10.6,3.9c-1.9,0.7-3.7,1.5-5.3,2.3c-1.8-0.4-3.1-1.4-3.8-2.8
		c-0.8-1.5-1.1-3.4-1-5.3c0.1-1.8,0.6-3.6,1.2-4.9c0.1-0.1,0.2-0.2,0.3-0.3c1.7-1,3.9-1.7,6.4-2.1c3.6-0.6,7.8-0.7,11.6-1.4
		C264.2,235.6,266.2,235,267.9,234.1z M195.9,239.3c0.6,0.2,1.2,0.5,1.8,0.7c-0.7,1.2-1.8,2.8-3.4,2.7c-0.2,0-0.4,0.1-0.5,0.2
		c-0.1,0.2-0.1,0.4,0,0.6s0.3,0.3,0.5,0.2c2.1,0,3.9-1.7,5-2.9c0.7,0.4,1.3,0.8,1.8,1.3c-1.9,1.8-6.3,4.7-10.8,0.5
		C193.2,242.9,195,240.7,195.9,239.3L195.9,239.3z M368.4,244.2c0,1.9-1.2,3.5-2.7,4.3c-0.7,0.4-2.1,0.5-1.8,0.4
		c0.9-0.3,1.5-1,2-1.6s0.8-1.4,0.9-2c0.1-0.3,0.1-0.4,0.1-0.6C367.5,244.6,368,244.4,368.4,244.2L368.4,244.2z M427.4,244.6
		c3.6-0.2,7,1.6,7.9,4c0,0.1,0,0.3,0,0.5c0,0.6-0.1,1.5-0.2,2.5c-0.1,2-0.3,4.7-0.5,7.4c-0.3,4.8-0.6,8.7-0.6,9.6
		c-4.6,3.5-8.6,0.2-9.9-2.6c-0.2-0.9-0.9-4.5-1.7-9.1c-0.5-2.6-0.9-5.1-1.3-7.1c-0.1-0.8-0.3-1.4-0.4-1.9
		C422.5,245.7,424.9,244.7,427.4,244.6L427.4,244.6z M412.9,245.6c1.9,0,3.8,0.8,5.2,2.6c0.1,0.6,0.2,1.3,0.4,2.2
		c0.4,1.9,0.8,4.5,1.3,7.1c0.9,4.7,1.6,8.6,1.7,9.4c-1.4,2.3-8.4,4-10.9,0.5c0-0.1,0.1-0.1,0-0.2l-4.7-18.8
		C407,247,409.9,245.6,412.9,245.6L412.9,245.6z M269.4,246.5c2.6,1.6,4.3,3.1,5.4,4.4c1.1,1.3,1.5,2.6,1.4,3.7
		c-0.1,2.2-2.2,4.3-5.2,6.3c-3.1,2-7,3.8-10.7,5.6c-1.8,0.9-3.5,1.7-5,2.5c-1.8,0.3-3.4-0.1-4.7-1.1c-1.4-1.1-2.6-2.9-3.4-4.8
		c-0.8-1.9-1.2-3.9-1.1-5.6c0-1.1,0.3-2,0.7-2.6c6.5-2.8,14.3-4.2,20-6.7C267.7,247.7,268.5,247.1,269.4,246.5L269.4,246.5z
		 M397.9,247.4c1.8-0.1,3.7,0.4,5.5,1.7l4.5,18.1c-1.3,3.4-6.9,4.5-9.1,3.1l-6.8-18.7C391.7,249.9,394.5,247.6,397.9,247.4z
		 M440.9,247.7c3.8,0.2,9.3,4.1,9.3,7.4l-4.6,18.3c-0.9,2.3-7.7,1.4-9-3.5c0,0,0,0,0,0c0,0,0.3-5.3,0.7-10.6
		c0.2-2.7,0.4-5.4,0.5-7.5c0.1-1,0.1-1.9,0.1-2.5c0-0.1,0-0.2,0-0.3C438.5,248,439.6,247.6,440.9,247.7L440.9,247.7z M386.8,251.2
		c1,0,1.8,0.3,2.4,0.7l7,19.3c-0.8,2.4-9,6.9-11.3,4.4l-7-19.4C378.3,253.8,383.2,251.2,386.8,251.2z M455.6,255.1
		c3.8,0,8.3,3.4,8.3,8.6l-7.3,18.2c-2.6,1.1-8.8-1.5-8.9-6.4l4.9-19.5C453.5,255.5,454.5,255.1,455.6,255.1L455.6,255.1z
		 M372.4,256.3c1.1,0,2.2,0.4,3.3,1.1l6.8,18.9c-0.8,3.6-7.8,7.8-10.6,4.7l-8-18.4c0-0.1,0.1-0.4,0.1-0.3
		C364.1,260.9,368.2,256.5,372.4,256.3z M277.1,259.4c3.9,2.4,5.2,4.9,5.1,7.5c-0.1,2.6-1.9,5.3-4.5,7.9c-4.1,4-9.7,7.2-14.3,9.3
		c-1.1,0-2.3-0.4-3.5-1.3c-1.4-1-2.8-2.5-3.9-4.1c-1.1-1.6-1.9-3.3-2.1-4.7c-0.1-0.7-0.1-1.3,0-1.8c0.1-0.4,0.3-0.6,0.6-0.8
		c6.5-2.9,14.5-5.5,19.7-9.1C275.3,261.4,276.3,260.5,277.1,259.4L277.1,259.4z M358.9,262.8c1-0.1,2,0,2.8,0.4l8.3,19
		c0.2,5-9.7,9.6-12,7.5l-7.5-20.8C350.5,266.8,355,263.3,358.9,262.8z M469.1,264.5c3.7,0.1,8.6,2.4,8.5,5.8l-7.1,19.3
		c-3.7,2.8-11.3-3.7-11.5-6.3l7.3-18C466.9,264.7,467.8,264.4,469.1,264.5L469.1,264.5z M344.5,268.3c1.2-0.4,2.6,0,4.1,1.4
		l7.5,20.8c-0.2,2.2-8.4,8-12.8,5.5c-1-2.4-4.7-10.9-5.5-16.5c0.5-1.8,1-3.6,1.7-5.2c0.7-1.5,1.3-2.5,2-3.8
		C342.2,269.8,343.2,268.7,344.5,268.3L344.5,268.3z M422.9,271c0,0,0,0.1,0.1,0.2c0.2,1.6,9.4,3.3,10.5,3.1c-0.7,2,5.2,5.8,8.4,7.1
		c0.9,1.2,0.9,3.6,0.8,4.9c-0.3,3.3,0.7,7.6,5.5,10.6c3.1,2,13.5,5.6,13.6,14c0,6.1-4.8,8.5-7,9.9c1.9-3.6-0.1-7.3-4.1-8
		c-2.8-0.4-9.9-0.9-16-0.3c-0.6,0.1-1,0.6-1,1.2c0.1,0.6,0.6,1,1.2,1c2.7,0.6,4,0.4,3.6,2.8c0,0.1,0.1,0.1,0.1,0.2
		c-9.7,7.6-30.5,27.2-31.1,34.7c-0.2,2.1,2,4.4,4.9,4.1c0.2,0,10.2-4.9,14.4-1.1c-2.3,2.3-0.6,7.7-0.6,8c-5.4,3.9-11.6-1.6-21.9-1.7
		c-10.3-0.1-18.8,6.7-25.5,6.8c-0.9,0-1.3-0.1-1.8-0.3c0.6-0.8,1.1-1.6,1.1-1.6c0.1,0,0.7-0.3,0.8-0.4c0.2,0,0.4-0.1,0.5-0.3
		c0.1-0.2,0-0.4-0.1-0.6c-0.1-0.1-0.4-0.2-0.6-0.1c0.1,0,0,0-0.1,0c-0.1,0-0.2,0-0.3,0c-0.3,0-4.7,1.1-5.9,1.1
		c-2.5,0-7.9,1.8-11.3,3.7c-2.3,0.9-6.7,6-13.5,4.5c0.8-2.9-0.3-6.6-2.5-9.7c0.4,0,1.1-1,1.4-1.8c10.1-1.7,9,3.5,11.4-0.3
		c1.5-2.4,2.3,4.1,14.8-6.3c0.2-0.1,0.3-0.3,0.3-0.5c0-0.2-0.1-0.4-0.3-0.5c-0.2-0.1-0.4-0.1-0.5,0c-15,6.2-10.5,1.9-17.2,2.2
		c-6.4,0.3-4.7,1.8-8.5,1.7c-2,0-4.2-1.8-4.7-2.7c1.6-0.4,1.7-5.5,0.5-7.6c0.8-1.1,3.2-1.5,5.3-1.5c5.7,0,7.9,5.2,13.9,5.8
		c4.3,0,8.2-3.6,11.8-1.2c0.3,0.1,0.6,0.1,0.7-0.2c0.1-0.2,0-0.4-0.2-0.6c26,0.9,45.3-56.1,41.2-62.3c0-0.2-0.1-0.3-0.2-0.4
		c0,0-0.1,0-0.1,0c-0.5-1.7-1.6-4-4.3-5c0,0,0-0.2,0-0.2c-0.7-0.8-2-5.9-7.3-6.6c0.3-1.3,0.5-2.3,0.5-2.9c2.7-0.6,5.6-1.6,6.2-2.5
		C411.2,273.2,423.3,272.9,422.9,271L422.9,271z M481.6,272c3.4,0,8.2,2.9,8.6,5.8l-5.9,15.3c-2.7,3.2-9.3,0.9-10.3,0
		c-0.7-0.7-0.9-1.8-1-3l6.2-17.3C479.8,272.3,480.6,272,481.6,272z M281.6,273.7c-0.1,0.8-0.1,1.6-0.2,2.4
		c-0.3,4.7-0.3,8.9-0.4,12.8c0,0,0,0,0,0v0c-0.8,2.8-1.9,4.6-3.3,5.5c-1.3,0.9-2.8,1-4.5,0.5c-3.1-1-6.5-4.5-8.9-9.1
		c6.4-2.2,12.8-6.2,16.7-11C281.3,274.3,281.4,274,281.6,273.7z M399.8,274.8c-0.5,7-11.8,15.4-16.1,15.2c0,0,0,0,0,0
		c-0.8-0.7-1.8-1.1-2.4-1.9C379.6,285.2,396.2,275.7,399.8,274.8L399.8,274.8z M445.1,279.1c0,0.1,0.1,0.1,0.1,0.2
		c-0.1,0-0.2,0.1-0.3,0.1C445.1,279.3,445.1,279.2,445.1,279.1z M403.2,279.5c4.4,0.4,6,5.6,4.6,6.4c0.2,0.3-4.1,9.9-8.8,12.4
		c-1.6,0.8-3.8,0.4-5.1,0.2c-2.4-1-5.2-3.5-6-6.1c1.2-2.3,7.7-4.4,13.2-12.8C401.9,279.5,402.6,279.5,403.2,279.5L403.2,279.5z
		 M492.4,279.7c3.1-0.7,9.2,2.7,9.5,7.3l-3.5,9.6c-2.1,1.6-11.8,1.8-11.9-2l5.5-14.7C492.2,279.9,492.3,279.7,492.4,279.7z
		 M336.7,287.3c1.9-1,3.9,6.7,4.7,9.2l0,0c0,0.4-3.3,9.6-5.7-3.5c0.1-0.8,0.4-3.2,0.6-5.3C336.5,287.6,336.6,287.3,336.7,287.3z
		 M410.5,288c0.5,0.7,2,0.8,2.5,3.1c-0.6,3.7-1.6,8.2-3.2,13.1c-2.3,0.9-6.2-0.5-8.6-1.9c-0.4-0.6-0.8-1.2-0.4-2.1
		c5.2-3.5,7.7-9.6,8.6-11.8C409.9,288,410.3,287.7,410.5,288z M503.6,289.6c2-0.3,7.6,3.8,8.2,9.1l0.1,0.3c-0.9,3.1-8.8,2.4-11-1.5
		L503.6,289.6z M280.8,293.5c-0.1,2.2-0.2,3.8-0.3,5.3c-0.6-0.6-1-1.3-1.4-2.1c0-0.1,0.1-0.1,0.1-0.1
		C279.9,295.8,280.4,294.7,280.8,293.5L280.8,293.5z M354.3,333.6c1.5,0,2,0.3,3.4,1.7c1.4,1.4,2.4,3.8,5.1,6.4
		c2.4,2.4,8.8,5.8,12.7,6.8c-1.3,0.4-2.7,0.7-4.1,1c-3.6-1.1-7.9,1.6-13.8-3.5c-0.8-0.7-3-1.2-5.2-1.6c-1.2-1-4.6-3.6-4.2-3.8
		c1.6-2.6,3.4-5.1,2.9-5.9C351.6,333.9,352.8,333.6,354.3,333.6L354.3,333.6z M344.8,334.3c1.6-0.3,3.2,0.1,4.5,0.8
		c-0.2,0.3-0.3,0.7-0.5,1c-1-0.6-2.3-1.1-4.6-0.6c-0.2,0-0.4,0.1-0.5,0.3c-0.1,0.2,0,0.4,0.2,0.5c0.2,0.1,0.4,0.1,0.6,0.1
		c1.9-0.4,2.8,0.3,3.6,1.1c-0.2,0.4-0.4,0.7-0.6,1c-1.1-0.8-5.3-3.5-6.4,0.7C341.3,336.1,343,334.7,344.8,334.3z M489.8,336.4
		c1.7,0.2,2.9,0.9,3.7,1.4c0.1,0.3,0.3,0.6,0.2,0.9c0,0.1-0.1,0.2-0.1,0.3c-1.3-0.8-3.6-1.8-6.3-1.2c-0.2,0-0.4,0.1-0.5,0.3
		c-0.1,0.2,0,0.4,0.1,0.5s0.4,0.2,0.6,0.1c2.3-0.5,3.7,1.3,4.8,2.2c-0.4,0.5-0.9,0.9-1.4,1.2c-0.8-0.7-5-4.3-8.4,0.5
		C484.6,337.3,487.4,336.2,489.8,336.4L489.8,336.4z M225.6,337c1.7-0.3,2.8,1,3.5,1.8c0,0.1-0.1,0.4-0.1,0.4c0.1,0.1,0,0.4-0.1,0.6
		c-1-0.5-2.3-0.8-4.7-0.2c-0.2,0-0.4,0.1-0.5,0.3c-0.1,0.2,0,0.4,0.2,0.5c0.2,0.1,0.4,0.2,0.6,0.1c1.9-0.4,2.6,0.2,3.4,1
		c-0.4,0.6-0.8,0.9-1.1,1.2c-1.3-0.8-4.5-2.6-6,0C222.6,338.7,224.2,337.2,225.6,337L225.6,337z M346.1,340.2
		C346.1,340.2,346.2,340.2,346.1,340.2c0,0.1,0,0.1-0.1,0.1C346.1,340.2,346.1,340.2,346.1,340.2z M338.8,348.3c0.1,0,0.1,0,0.2,0
		c0.3,0.2,0.8,0.4,0.9,0.5c0.2,0.2,0.3,0.6,0.5,0.9c-1.5-0.1-3.3-0.1-4.9,1.3c-0.2,0.1-0.3,0.3-0.2,0.5c0,0.2,0.2,0.4,0.4,0.5
		c0.2,0.1,0.4,0,0.5-0.1c1.6-1.3,3.4-0.3,4.7,0.2c0,0.6-0.1,1-0.3,1.6c-1.3-1-4.4-2.8-7,0.2C333.3,348.9,336.8,348.3,338.8,348.3
		L338.8,348.3z M483.5,353c0.4,0,0.5,0.1,0.8,0.1c0.1,0.7,0.1,1.3,0.1,2.1c-1.5-0.2-3.5-0.2-5.2,1.3c-0.2,0.1-0.3,0.3-0.2,0.5
		c0,0.2,0.1,0.4,0.3,0.4c0.2,0.1,0.4,0,0.6-0.1c1.3-1.1,2.7-0.5,4,0c-0.1,0.4-0.2,0.7-0.4,1c-1.5-0.6-5.6-1.7-6.3,4
		C474,353.7,480.1,352.8,483.5,353L483.5,353z M428.9,356.5c0,0,0,0.2,0,0.2c3.8,0.1,11,5,2.3,10.4c2.9-3.7-2.5-5.1-3.1-5.2
		c0-0.1,0-0.3,0-0.4c1.3,0,2.5-0.6,4.9,1.7c0.1,0.1,0.2,0.3,0.4,0.4c0.2,0,0.4-0.1,0.5-0.2c0.1-0.2,0.1-0.4,0-0.6
		c-1.1-2.4-4.1-3.5-5.7-3.9C428.4,358.2,428.6,357.4,428.9,356.5L428.9,356.5z M221.5,357.3c0.1,0.6,0.1,1.2-0.1,1.9
		c-1.5-0.2-3.6-0.2-5.4,1.2c-0.2,0.1-0.3,0.3-0.3,0.5c0,0.2,0.2,0.4,0.4,0.5c0.2,0.1,0.4,0,0.6-0.1c1.3-1.1,2.8-0.5,4,0
		c-0.3,0.7-0.6,1.3-0.9,1.9c-1.4-0.6-3.9-1.5-6.2,0.7C214.5,357.6,218.9,357.1,221.5,357.3L221.5,357.3z M575.1,361.5
		c1.7,0.5,11.2,4.2,3.3,11.4c2-5.7-3.5-6.3-4.5-6.4c0-0.2,0-0.5,0-0.8c1.4,0.1,3.3,0.1,4.1,2c0.1,0.2,0.2,0.3,0.4,0.4
		c0.2,0,0.4-0.1,0.5-0.2c0.1-0.2,0.1-0.4,0-0.6c-1-2.4-3.2-3.4-4.7-3.8C574.5,362.8,574.7,362,575.1,361.5L575.1,361.5z
		 M490.4,366.6c0.3,0.6,0.6,1.2,0.8,2c-1.4,0.3-3.9,1.4-5,3.9c-0.1,0.2-0.1,0.4,0,0.6c0.1,0.2,0.3,0.3,0.5,0.2
		c0.2,0,0.4-0.2,0.4-0.4c0.9-2,3-1.8,4.5-2c0,0.3,0.1,0.6,0.1,0.8c-1.2,0.1-6.8,0.8-4.9,6.4C478.5,370.5,489.6,366.8,490.4,366.6
		L490.4,366.6z M344.4,367c0.2,0.4,0.5,0.7,0.7,1.3c-1.5,0.5-3.4,1.4-4.4,3.6c-0.1,0.2-0.1,0.4,0,0.6c0.1,0.2,0.3,0.3,0.5,0.2
		c0.2,0,0.4-0.2,0.4-0.4c0.8-1.8,2.7-1.8,4.1-2c0.2,0.8,0.2,1.6,0.2,2.4c-1.7-0.3-5.7,0.1-6.9,3.4C335.7,372.6,340.1,368,344.4,367z
		 M307.9,368.4c3.9,0.8,11.1,4.1,3.1,11.4c2.7-4-2.8-5.2-4.3-5.4c-0.1-0.4-0.1-0.9-0.2-1.4c1.5,0.1,4.1,0.1,4.9,2
		c0.1,0.2,0.2,0.3,0.4,0.4c0.2,0,0.4-0.1,0.5-0.2c0.1-0.2,0.1-0.4,0-0.6c-1-2.3-3.9-3.6-5.5-4.1
		C307.2,369.6,307.5,368.9,307.9,368.4L307.9,368.4z M225.6,376.5L225.6,376.5c0.4,0.6,0.8,1,1.1,1.7c-1.4,0.6-3,1.5-3.8,3.4
		c-0.1,0.2-0.1,0.4,0,0.6c0.1,0.2,0.3,0.3,0.5,0.2c0.2,0,0.4-0.2,0.4-0.4c0.7-1.5,2.1-1.8,3.4-1.9c0.2,0.8,0.2,1.5,0.1,2.3
		c-1.8-0.1-5,0.2-3.4,4.9C218.9,381.1,222.8,376.6,225.6,376.5L225.6,376.5z"/>
</g>
</svg>
